SplineFontDB: 3.0
FontName: DOF-1-Regular
FullName: DOF-1-Regular
FamilyName: DOF-1
Weight: Regular
Copyright: Generated from MetaFont bitmap by mftrace 1.2.18, http://www.xs4all.nl/~hanwen/mftrace/ 
Version: 001.001
ItalicAngle: 0
UnderlinePosition: -91
UnderlineWidth: 45
Ascent: 819
Descent: 205
InvalidEm: 0
LayerCount: 2
Layer: 0 0 "Back" 1
Layer: 1 0 "Fore" 0
FSType: 0
OS2Version: 0
OS2_WeightWidthSlopeOnly: 0
OS2_UseTypoMetrics: 0
CreationTime: 1493474228
ModificationTime: 1493474708
PfmFamily: 17
TTFWeight: 400
TTFWidth: 5
LineGap: 92
VLineGap: 0
OS2TypoAscent: 0
OS2TypoAOffset: 1
OS2TypoDescent: 0
OS2TypoDOffset: 1
OS2TypoLinegap: 92
OS2WinAscent: 0
OS2WinAOffset: 1
OS2WinDescent: 0
OS2WinDOffset: 1
HheadAscent: 0
HheadAOffset: 1
HheadDescent: 0
HheadDOffset: 1
OS2Vendor: 'PfEd'
MarkAttachClasses: 1
DEI: 91125
LangName: 1033
Encoding: ISO8859-1
UnicodeInterp: none
NameList: AGL For New Fonts
DisplaySize: -72
AntiAlias: 1
FitToEm: 0
WinInfo: 64 8 2
BeginPrivate: 3
lenIV 1 4
BlueValues 2 []
ForceBold 5 false
EndPrivate
TeXData: 1 0 0 279552 139776 93184 627712 1048576 93184 783286 444596 497025 792723 393216 433062 380633 303038 157286 324010 404750 52429 2506097 1059062 262144
BeginChars: 260 96

StartChar: exclam
Encoding: 33 33 1
Width: 303
VWidth: 910
Flags: HW
LayerCount: 2
Fore
SplineSet
137 818 m 0
 144 819 159 819 167 818 c 0
 182 816 196 809 200 802 c 0
 202 799 202 788 202 489 c 0
 202 220 202 180 201 177 c 0
 193 162 156 155 127 162 c 0
 115 165 106 171 102 177 c 0
 100 181 100 797 102 801 c 0
 107 809 120 815 137 818 c 0
137 46 m 0
 145 47 167 46 176 44 c 0
 190 40 200 33 202 26 c 0
 204 16 194 8 175 3 c 0
 164 0 139 0 128 3 c 0
 109 8 99 15 101 26 c 0
 103 34 117 43 137 46 c 0
EndSplineSet
Validated: 33
EndChar

StartChar: quotedbl
Encoding: 34 34 2
Width: 303
VWidth: 910
Flags: HW
LayerCount: 2
Fore
SplineSet
66 818 m 0
 86 821 110 817 122 809 c 0
 132 802 131 808 131 735 c 0
 131 663 132 669 123 663 c 0
 105 648 56 648 38 663 c 0
 29 669 30 663 30 735 c 0
 30 805 30 801 36 806 c 0
 42 811 52 816 66 818 c 0
208 818 m 0
 228 821 252 817 264 809 c 0
 274 802 273 808 273 735 c 0
 273 663 274 669 265 663 c 0
 247 648 198 648 180 663 c 0
 171 669 172 663 172 735 c 0
 172 805 172 801 178 806 c 0
 184 811 194 816 208 818 c 0
EndSplineSet
Validated: 33
EndChar

StartChar: numbersign
Encoding: 35 35 3
Width: 607
VWidth: 910
Flags: HW
LayerCount: 2
Fore
SplineSet
258 613 m 0
 265 614 279 614 287 613 c 0
 302 611 315 604 319 599 c 0
 323 593 323 593 299 512 c 0
 286 469 277 434 277 434 c 2
 277 433 304 433 341 433 c 2
 405 434 l 1
 430 515 l 2
 443 559 454 597 454 598 c 0
 457 602 466 608 474 610 c 0
 499 618 533 615 547 602 c 0
 552 598 553 595 553 592 c 0
 553 591 544 555 531 512 c 2
 507 434 l 1
 524 433 l 2
 542 432 553 431 563 426 c 0
 569 423 575 418 576 413 c 0
 580 404 569 395 550 390 c 0
 544 388 539 388 518 387 c 0
 496 387 493 387 493 385 c 0
 492 384 483 349 470 306 c 0
 457 264 447 228 447 228 c 2
 447 227 455 228 464 228 c 0
 479 227 484 227 490 225 c 0
 525 216 525 194 490 184 c 0
 483 182 479 182 458 181 c 2
 433 181 l 1
 410 101 l 2
 396 56 385 19 384 18 c 0
 382 14 375 9 370 6 c 0
 353 -1 326 -1 307 5 c 0
 299 7 290 11 288 15 c 0
 284 21 284 21 308 102 c 0
 321 145 330 180 330 180 c 2
 330 181 303 181 266 181 c 2
 202 181 l 1
 177 100 l 2
 164 55 153 17 153 16 c 0
 150 12 141 7 133 5 c 0
 108 -3 74 0 60 13 c 0
 55 17 54 20 54 23 c 0
 54 24 63 60 76 103 c 2
 100 181 l 1
 83 181 l 2
 65 182 55 183 45 188 c 0
 39 191 32 196 31 201 c 0
 27 210 38 220 57 225 c 0
 63 227 68 227 89 228 c 0
 111 228 114 227 114 229 c 0
 115 230 124 266 137 309 c 0
 150 351 160 386 160 386 c 2
 160 387 152 387 143 387 c 0
 128 388 123 388 118 390 c 0
 82 399 82 421 118 431 c 0
 124 433 128 432 150 433 c 2
 175 433 l 1
 198 513 l 2
 212 558 222 595 223 596 c 0
 227 604 241 610 258 613 c 0
391 386 m 0
 391 387 379 387 327 387 c 2
 262 387 l 1
 239 309 l 2
 226 265 216 229 216 228 c 0
 216 227 228 228 280 228 c 2
 345 228 l 1
 368 306 l 2
 381 350 391 385 391 386 c 0
EndSplineSet
Validated: 33
EndChar

StartChar: dollar
Encoding: 36 36 4
Width: 546
VWidth: 910
Flags: HW
LayerCount: 2
Fore
SplineSet
259 818 m 0
 279 821 303 817 315 809 c 0
 324 803 324 805 324 765 c 2
 324 731 l 1
 330 731 l 2
 342 729 364 726 376 722 c 0
 424 710 458 690 474 664 c 0
 483 649 489 623 484 614 c 0
 481 609 473 604 459 600 c 0
 450 597 423 597 414 599 c 0
 401 603 392 608 388 613 c 0
 386 615 385 619 385 624 c 0
 383 640 379 651 369 661 c 0
 360 670 347 676 330 681 c 2
 324 683 l 1
 324 552 l 1
 324 421 l 1
 334 417 l 2
 383 398 420 375 446 350 c 0
 466 329 478 309 483 284 c 0
 485 276 485 273 485 258 c 0
 485 243 485 239 483 229 c 0
 475 192 455 160 424 135 c 0
 397 113 366 98 326 90 c 1
 324 90 l 1
 324 56 l 2
 324 15 324 16 315 10 c 0
 290 -6 235 -2 224 18 c 0
 223 20 223 28 223 55 c 2
 223 88 l 1
 214 89 l 2
 170 94 130 108 104 125 c 0
 93 132 78 147 73 157 c 0
 64 172 58 196 63 205 c 0
 66 210 74 215 88 219 c 0
 97 222 124 222 133 220 c 0
 146 216 155 212 159 207 c 0
 161 205 162 201 162 196 c 0
 163 186 165 176 169 170 c 0
 177 155 194 143 219 137 c 2
 223 137 l 1
 223 268 l 1
 223 398 l 1
 210 402 l 2
 155 424 120 445 94 471 c 0
 74 492 62 510 57 535 c 0
 55 543 56 547 56 562 c 0
 56 579 57 591 62 606 c 0
 66 618 77 639 84 649 c 0
 91 660 108 677 120 686 c 0
 136 699 159 711 181 718 c 0
 190 722 218 729 221 729 c 0
 223 729 223 730 223 764 c 0
 223 802 223 801 229 806 c 0
 235 811 245 816 259 818 c 0
223 514 m 1
 223 620 l 1
 223 673 l 1
 217 669 l 2
 187 651 164 618 157 583 c 0
 155 572 155 549 157 540 c 0
 164 511 181 490 214 468 c 2
 223 462 l 1
 223 514 l 1
336 346 m 0
 332 349 328 352 327 352 c 2
 324 354 l 1
 324 252 l 2
 324 196 324 149 325 149 c 0
 327 149 341 160 348 167 c 0
 366 186 378 210 383 236 c 0
 384 241 384 247 384 259 c 0
 384 272 384 276 382 283 c 0
 377 301 368 316 353 331 c 0
 348 336 341 343 336 346 c 0
EndSplineSet
Validated: 33
EndChar

StartChar: percent
Encoding: 37 37 5
Width: 667
VWidth: 910
Flags: HW
LayerCount: 2
Fore
SplineSet
151 824 m 0
 159 825 180 824 189 822 c 0
 211 817 221 805 213 794 c 0
 209 790 205 786 191 781 c 0
 172 772 151 751 140 728 c 0
 123 692 125 650 144 619 c 0
 150 610 160 599 167 595 c 0
 172 592 173 592 176 593 c 0
 190 598 203 617 209 637 c 0
 211 643 211 646 211 658 c 0
 211 673 209 681 204 692 c 0
 199 701 199 702 201 707 c 0
 204 714 212 720 227 724 c 0
 234 726 237 725 250 725 c 0
 266 725 276 724 287 719 c 0
 294 715 298 711 302 703 c 0
 315 678 316 651 308 626 c 0
 291 574 235 542 166 545 c 0
 113 548 72 568 48 603 c 0
 39 618 33 634 29 652 c 0
 27 664 27 689 30 703 c 0
 35 731 49 756 69 777 c 0
 91 801 125 819 151 824 c 0
572 818 m 0
 580 819 601 818 610 816 c 0
 628 811 640 802 636 793 c 0
 634 788 129 16 126 13 c 0
 121 9 113 6 105 3 c 0
 94 0 69 0 58 3 c 0
 39 8 27 17 31 26 c 0
 33 31 539 803 542 806 c 0
 548 811 559 816 572 818 c 0
474 273 m 0
 486 274 514 273 527 271 c 0
 568 264 599 245 619 216 c 0
 628 201 634 185 638 167 c 0
 640 155 640 131 637 117 c 0
 630 82 612 51 583 27 c 0
 567 13 541 1 524 -3 c 0
 513 -6 489 -6 479 -3 c 0
 456 2 446 14 454 25 c 0
 458 29 462 33 476 38 c 0
 495 47 516 68 527 91 c 0
 544 127 542 169 523 200 c 0
 517 209 507 220 500 224 c 0
 495 227 495 227 492 226 c 0
 478 221 464 202 458 182 c 0
 456 176 456 173 456 162 c 0
 456 147 458 138 463 127 c 0
 468 118 468 117 466 112 c 0
 463 105 456 100 441 96 c 0
 434 94 430 94 418 94 c 0
 401 94 391 95 380 100 c 0
 373 104 369 109 365 117 c 0
 352 142 352 168 360 193 c 0
 375 238 416 267 474 273 c 0
EndSplineSet
Validated: 33
EndChar

StartChar: ampersand
Encoding: 38 38 6
Width: 546
VWidth: 910
Flags: HW
LayerCount: 2
Fore
SplineSet
251 824 m 0
 295 829 338 819 370 799 c 0
 417 769 448 711 454 636 c 0
 458 588 448 551 422 512 c 0
 411 496 403 485 385 467 c 0
 362 444 342 427 305 401 c 0
 295 395 282 386 276 381 c 2
 265 373 l 1
 274 355 l 2
 301 299 338 239 373 190 c 0
 389 167 391 165 392 166 c 0
 394 168 399 193 400 210 c 0
 400 217 400 224 401 225 c 0
 404 231 414 236 428 240 c 0
 439 243 461 243 472 240 c 0
 482 237 489 235 494 230 c 0
 500 225 501 224 501 209 c 0
 499 167 486 127 464 94 c 2
 460 86 l 1
 467 79 l 2
 483 63 502 49 521 37 c 0
 528 32 531 29 531 24 c 0
 531 15 521 8 503 3 c 0
 498 1 495 1 482 1 c 0
 456 0 443 4 416 25 c 2
 406 33 l 1
 399 28 l 2
 362 4 314 -6 266 -5 c 0
 218 -3 179 10 145 35 c 0
 135 42 116 60 109 70 c 0
 84 103 70 140 63 186 c 0
 62 193 62 203 62 218 c 0
 62 237 62 238 64 249 c 0
 74 295 101 335 154 378 c 1
 157 381 l 1
 149 400 l 2
 119 468 100 529 93 579 c 0
 88 617 93 665 106 703 c 0
 130 775 179 817 251 824 c 0
279 776 m 0
 274 778 272 778 267 776 c 0
 259 773 249 766 241 758 c 0
 212 729 195 679 192 622 c 0
 191 590 197 553 211 507 c 0
 218 482 235 439 236 439 c 0
 237 439 259 456 271 465 c 0
 283 475 305 497 313 508 c 0
 343 545 356 580 354 622 c 0
 351 679 334 729 305 758 c 0
 297 766 287 773 279 776 c 0
202 294 m 0
 198 301 195 308 195 308 c 2
 194 308 192 305 189 300 c 0
 176 283 169 264 164 243 c 0
 162 231 162 202 165 184 c 0
 168 163 174 143 182 125 c 0
 199 86 228 55 258 44 c 0
 267 41 279 41 289 43 c 0
 298 46 318 56 327 62 c 0
 335 68 348 80 350 83 c 0
 351 85 350 85 345 90 c 0
 301 137 245 218 202 294 c 0
EndSplineSet
Validated: 33
EndChar

StartChar: parenleft
Encoding: 40 40 7
Width: 212
VWidth: 910
Flags: HW
LayerCount: 2
Fore
SplineSet
111 847 m 0
 122 850 146 850 156 847 c 0
 170 843 178 837 181 831 c 0
 182 826 182 826 177 806 c 0
 124 583 118 354 155 127 c 0
 160 90 168 51 177 13 c 0
 182 -7 182 -7 181 -12 c 0
 178 -18 170 -23 156 -27 c 0
 150 -29 146 -29 131 -29 c 0
 116 -29 112 -29 107 -27 c 0
 94 -23 86 -18 83 -13 c 0
 82 -12 79 0 76 15 c 0
 15 275 15 544 76 804 c 0
 79 819 82 831 83 832 c 0
 86 838 96 843 111 847 c 0
EndSplineSet
Validated: 33
EndChar

StartChar: parenright
Encoding: 41 41 8
Width: 212
VWidth: 910
Flags: HW
LayerCount: 2
Fore
SplineSet
66 848 m 0
 67 849 76 849 84 849 c 0
 95 848 100 849 105 847 c 0
 118 843 126 837 129 832 c 0
 131 828 142 783 148 751 c 0
 196 507 193 258 137 15 c 0
 134 0 130 -12 129 -13 c 0
 126 -18 118 -23 105 -27 c 0
 100 -29 96 -29 81 -29 c 0
 66 -29 62 -29 56 -27 c 0
 42 -23 34 -18 31 -12 c 0
 30 -7 30 -7 35 13 c 0
 88 236 94 465 57 692 c 0
 52 729 44 768 35 806 c 0
 30 826 30 826 31 831 c 0
 35 838 48 845 66 848 c 0
EndSplineSet
Validated: 33
EndChar

StartChar: asterisk
Encoding: 42 42 9
Width: 485
VWidth: 910
Flags: HW
LayerCount: 2
Fore
SplineSet
228 818 m 0
 247 821 271 817 284 809 c 0
 293 803 292 806 293 757 c 2
 294 715 l 1
 314 727 l 2
 335 738 341 742 352 744 c 0
 377 749 408 742 417 731 c 0
 423 724 422 718 415 711 c 0
 412 709 388 694 360 678 c 0
 332 662 308 648 308 648 c 1
 308 648 332 634 360 618 c 0
 388 602 412 587 415 585 c 0
 422 578 423 572 417 565 c 0
 408 554 377 548 352 553 c 0
 341 555 335 558 315 569 c 2
 294 582 l 1
 293 539 l 2
 293 509 292 496 291 494 c 0
 287 488 279 483 265 480 c 0
 254 477 231 477 220 480 c 0
 206 483 198 488 194 494 c 0
 193 496 192 509 192 539 c 2
 192 582 l 1
 171 569 l 2
 150 558 144 555 133 553 c 0
 108 548 77 554 68 565 c 0
 62 572 63 578 70 585 c 0
 73 587 98 602 126 618 c 0
 154 634 177 648 177 648 c 1
 177 648 154 662 126 678 c 0
 98 694 73 709 70 711 c 0
 63 718 62 724 68 731 c 0
 77 742 108 749 133 744 c 0
 144 742 150 738 171 727 c 2
 192 715 l 1
 192 757 l 2
 192 787 193 800 194 802 c 0
 199 809 211 815 228 818 c 0
EndSplineSet
Validated: 33
EndChar

StartChar: plus
Encoding: 43 43 10
Width: 607
VWidth: 910
Flags: HW
LayerCount: 2
Fore
SplineSet
289 613 m 0
 309 616 333 612 345 604 c 0
 355 597 354 612 354 462 c 2
 354 330 l 1
 448 330 l 2
 542 329 543 330 550 328 c 0
 564 324 574 317 576 310 c 0
 580 301 569 292 550 287 c 0
 543 285 542 285 448 284 c 2
 354 284 l 1
 354 152 l 2
 354 2 355 17 345 10 c 0
 320 -6 265 -2 254 18 c 0
 253 20 253 40 253 152 c 2
 253 284 l 1
 159 284 l 2
 65 285 64 285 57 287 c 0
 43 291 33 297 31 304 c 0
 27 313 38 323 57 328 c 0
 64 330 65 329 159 330 c 2
 253 330 l 1
 253 462 l 2
 253 608 252 596 259 602 c 0
 265 607 275 611 289 613 c 0
EndSplineSet
Validated: 33
EndChar

StartChar: comma
Encoding: 44 44 11
Width: 182
VWidth: 910
Flags: HW
LayerCount: 2
Fore
SplineSet
77 46 m 0
 97 49 121 44 133 36 c 0
 140 31 142 28 142 19 c 0
 142 -17 131 -61 114 -96 c 0
 109 -108 105 -110 97 -114 c 0
 86 -119 79 -120 61 -120 c 0
 46 -120 42 -120 36 -118 c 0
 28 -116 21 -113 16 -109 c 0
 13 -106 10 -101 10 -97 c 0
 10 -96 12 -90 16 -82 c 0
 31 -52 39 -21 41 14 c 0
 41 21 42 27 43 28 c 0
 47 36 60 43 77 46 c 0
EndSplineSet
Validated: 33
EndChar

StartChar: hyphen
Encoding: 45 45 12
Width: 607
VWidth: 910
Flags: HW
LayerCount: 2
Fore
SplineSet
66 330 m 0
 69 330 178 330 307 330 c 2
 542 330 l 1
 550 328 l 2
 575 322 584 309 572 297 c 0
 567 292 559 290 549 287 c 2
 542 285 l 1
 304 285 l 1
 66 285 l 1
 58 287 l 2
 43 291 33 297 31 304 c 0
 27 315 42 326 66 330 c 0
EndSplineSet
Validated: 33
EndChar

StartChar: period
Encoding: 46 46 13
Width: 182
VWidth: 910
Flags: HW
LayerCount: 2
Fore
SplineSet
75 55 m 0
 108 59 143 50 150 35 c 0
 156 22 146 10 123 5 c 0
 75 -8 19 10 32 35 c 0
 37 44 54 52 75 55 c 0
EndSplineSet
Validated: 33
EndChar

StartChar: slash
Encoding: 47 47 14
Width: 303
VWidth: 910
Flags: HW
LayerCount: 2
Fore
SplineSet
208 818 m 0
 216 819 237 818 246 816 c 0
 260 812 270 806 272 799 c 0
 273 796 264 746 202 410 c 0
 163 197 131 21 130 20 c 0
 129 14 119 7 105 3 c 0
 94 0 69 0 58 3 c 0
 43 7 33 13 31 20 c 0
 30 23 39 74 101 411 c 0
 140 623 172 798 173 799 c 0
 174 803 180 808 185 811 c 0
 190 814 201 817 208 818 c 0
EndSplineSet
Validated: 33
EndChar

StartChar: zero
Encoding: 48 48 15
Width: 546
VWidth: 910
Flags: HW
LayerCount: 2
Fore
SplineSet
248 824 m 0
 263 825 296 824 311 822 c 0
 377 812 421 781 449 725 c 0
 473 676 485 614 490 512 c 0
 492 482 492 337 490 308 c 0
 485 205 473 144 449 96 c 0
 421 38 378 7 311 -3 c 0
 300 -5 294 -5 273 -5 c 0
 252 -5 246 -5 235 -3 c 0
 168 7 125 38 97 96 c 0
 73 144 61 205 56 308 c 0
 54 337 54 482 56 512 c 0
 61 614 73 676 97 725 c 0
 114 760 136 783 166 799 c 0
 188 812 217 821 248 824 c 0
291 776 m 0
 283 779 269 779 260 777 c 0
 253 775 243 770 234 764 c 0
 209 745 189 707 176 655 c 0
 166 617 161 576 157 511 c 0
 155 481 155 338 157 309 c 0
 161 228 169 177 184 134 c 0
 189 119 201 95 208 85 c 0
 222 64 238 50 255 44 c 0
 261 42 263 42 273 42 c 0
 283 42 285 42 291 44 c 0
 308 50 325 64 339 85 c 0
 346 95 357 119 362 134 c 0
 377 177 385 228 389 309 c 0
 391 338 391 481 389 511 c 0
 385 591 377 642 362 685 c 0
 357 700 346 725 339 735 c 0
 325 756 308 770 291 776 c 0
EndSplineSet
Validated: 33
EndChar

StartChar: one
Encoding: 49 49 16
Width: 379
VWidth: 910
Flags: HW
LayerCount: 2
Fore
SplineSet
255 818 m 0
 262 819 276 819 284 818 c 0
 299 816 314 809 318 802 c 0
 320 799 319 785 319 419 c 2
 319 39 l 1
 322 38 l 2
 327 36 333 30 333 26 c 0
 336 16 327 8 308 3 c 0
 301 1 299 1 269 1 c 0
 239 1 236 1 230 3 c 0
 210 8 201 16 203 26 c 0
 204 30 210 35 215 38 c 2
 218 40 l 1
 218 370 l 1
 218 701 l 1
 217 699 l 2
 216 698 191 677 163 652 c 0
 107 603 107 603 93 599 c 0
 87 597 83 597 69 597 c 0
 55 597 52 597 46 599 c 0
 35 602 26 607 21 612 c 0
 18 616 18 616 18 620 c 0
 19 625 20 626 25 631 c 0
 29 634 74 676 128 723 c 0
 207 792 228 810 232 812 c 0
 238 815 247 817 255 818 c 0
EndSplineSet
Validated: 33
EndChar

StartChar: two
Encoding: 50 50 17
Width: 546
VWidth: 910
Flags: HW
LayerCount: 2
Fore
SplineSet
254 824 m 0
 261 825 300 824 310 823 c 0
 378 813 431 782 462 736 c 0
 481 707 489 675 485 634 c 0
 479 556 445 485 369 390 c 0
 356 375 349 365 318 328 c 0
 245 242 221 206 196 158 c 0
 182 129 173 107 168 80 c 0
 166 72 163 50 163 46 c 1
 307 46 l 1
 451 46 l 1
 459 44 l 2
 467 42 476 38 480 34 c 0
 482 33 483 30 484 27 c 0
 486 23 486 24 485 20 c 0
 481 12 473 7 458 3 c 2
 451 1 l 1
 273 1 l 1
 96 1 l 1
 88 3 l 2
 74 7 66 12 62 17 c 0
 61 20 61 23 61 35 c 0
 63 67 69 98 80 128 c 0
 95 169 118 211 152 257 c 0
 170 282 186 301 223 344 c 0
 267 396 279 412 298 437 c 0
 346 501 372 557 381 613 c 0
 385 638 386 665 383 681 c 0
 377 713 357 742 330 760 c 0
 305 775 281 781 259 776 c 0
 224 770 190 744 174 710 c 0
 167 695 163 681 162 664 c 0
 162 659 161 653 160 652 c 0
 157 646 148 640 136 636 c 0
 131 635 126 635 111 635 c 0
 95 635 93 635 86 637 c 0
 76 641 69 644 65 649 c 0
 62 653 62 653 62 664 c 0
 62 688 70 714 85 736 c 0
 113 779 158 807 218 819 c 0
 230 822 237 823 254 824 c 0
EndSplineSet
Validated: 33
EndChar

StartChar: three
Encoding: 51 51 18
Width: 546
VWidth: 910
Flags: HW
LayerCount: 2
Fore
SplineSet
243 823 m 0
 260 826 294 825 310 822 c 0
 358 815 397 797 428 765 c 0
 449 744 464 721 474 694 c 0
 497 637 497 574 474 518 c 0
 463 490 449 468 428 447 c 0
 413 432 404 426 380 411 c 2
 378 410 l 1
 388 404 l 2
 402 397 415 386 428 373 c 0
 444 358 455 342 465 322 c 0
 485 284 496 236 491 193 c 0
 484 120 446 59 390 25 c 0
 358 6 322 -3 279 -5 c 0
 223 -6 167 8 122 35 c 0
 105 45 91 55 76 70 c 0
 62 83 61 86 61 91 c 0
 61 96 61 96 65 100 c 0
 74 109 89 114 111 114 c 0
 126 114 137 112 146 107 c 0
 151 105 154 103 165 93 c 0
 184 75 198 64 218 55 c 0
 238 46 253 42 272 42 c 0
 283 42 284 42 292 45 c 0
 317 54 341 74 359 102 c 0
 379 132 390 175 390 214 c 0
 390 242 384 274 372 299 c 0
 357 334 331 364 304 378 c 0
 291 384 284 386 269 387 c 0
 241 389 223 398 223 411 c 0
 223 423 241 431 269 433 c 0
 284 434 291 436 302 441 c 0
 341 460 372 504 385 556 c 0
 389 573 390 584 390 606 c 0
 390 633 387 651 379 676 c 0
 362 724 327 763 289 776 c 0
 284 778 281 777 271 777 c 0
 253 777 237 774 218 765 c 0
 198 756 184 744 165 726 c 0
 154 716 151 714 146 712 c 0
 137 707 126 705 111 705 c 0
 89 705 74 710 65 719 c 0
 61 723 61 723 61 728 c 0
 61 732 62 733 64 736 c 0
 68 741 84 758 93 765 c 0
 134 798 185 818 243 823 c 0
EndSplineSet
Validated: 33
EndChar

StartChar: four
Encoding: 52 52 19
Width: 500
VWidth: 910
Flags: HW
LayerCount: 2
Fore
SplineSet
112 818 m 0
 120 819 141 818 150 816 c 0
 164 812 175 805 177 799 c 0
 177 796 171 742 163 661 c 0
 156 587 149 526 149 525 c 0
 149 523 152 523 190 523 c 2
 230 523 l 1
 230 559 l 2
 230 600 230 598 239 604 c 0
 259 618 302 618 322 604 c 0
 331 598 331 600 331 559 c 2
 331 523 l 1
 383 523 l 2
 433 522 436 523 443 521 c 0
 457 517 468 510 470 503 c 0
 474 494 462 485 443 480 c 0
 436 478 433 478 383 477 c 2
 331 477 l 1
 331 248 l 2
 331 29 332 20 330 17 c 0
 329 15 326 13 322 10 c 0
 297 -6 242 -2 231 18 c 0
 230 21 230 52 230 248 c 2
 230 477 l 1
 155 477 l 2
 80 478 79 478 73 480 c 0
 58 484 48 491 46 497 c 0
 46 501 74 795 76 800 c 0
 77 804 85 810 90 813 c 0
 96 815 104 817 112 818 c 0
EndSplineSet
Validated: 33
EndChar

StartChar: five
Encoding: 53 53 20
Width: 546
VWidth: 910
Flags: HW
LayerCount: 2
Fore
SplineSet
97 818 m 0
 100 818 181 819 277 819 c 2
 451 818 l 1
 459 816 l 2
 467 814 476 810 480 806 c 0
 482 805 483 803 484 800 c 0
 486 796 486 797 485 793 c 0
 481 785 474 780 459 776 c 2
 451 774 l 1
 307 773 l 1
 162 773 l 1
 162 686 l 1
 162 600 l 2
 163 600 166 601 170 603 c 0
 210 618 267 623 309 617 c 0
 343 612 374 600 398 581 c 0
 444 545 473 479 486 391 c 0
 490 362 491 346 491 308 c 0
 491 279 491 266 490 253 c 0
 478 129 437 49 369 15 c 0
 321 -9 256 -12 191 5 c 0
 145 17 108 39 76 70 c 0
 62 83 61 86 61 91 c 0
 61 96 61 96 65 100 c 0
 74 109 89 114 111 114 c 0
 126 114 137 112 146 107 c 0
 151 105 154 103 165 93 c 0
 184 75 198 64 218 55 c 0
 235 47 251 42 268 41 c 0
 278 41 284 42 294 47 c 0
 318 59 338 81 354 116 c 0
 372 153 384 198 389 255 c 0
 391 279 391 336 389 360 c 0
 384 417 372 462 354 499 c 0
 338 534 318 555 294 567 c 0
 284 572 278 573 268 573 c 0
 233 570 196 553 166 522 c 0
 160 516 152 510 150 509 c 0
 147 507 142 505 138 503 c 0
 131 501 128 502 115 501 c 0
 102 501 98 500 91 502 c 0
 79 505 70 509 65 514 c 2
 61 519 l 1
 61 659 l 2
 61 814 60 800 67 806 c 0
 73 811 83 816 97 818 c 0
EndSplineSet
Validated: 33
EndChar

StartChar: six
Encoding: 54 54 21
Width: 546
VWidth: 910
Flags: HW
LayerCount: 2
Fore
SplineSet
291 829 m 0
 296 830 329 829 339 828 c 0
 394 820 436 792 457 750 c 0
 461 743 462 740 460 735 c 0
 456 730 447 723 434 720 c 0
 425 717 401 716 391 718 c 0
 373 722 365 727 359 739 c 0
 352 754 343 764 332 772 c 0
 326 777 314 783 309 784 c 0
 305 784 298 782 289 777 c 0
 250 757 217 709 195 640 c 0
 190 626 184 604 184 603 c 1
 185 603 189 604 194 606 c 0
 220 616 249 621 281 620 c 0
 328 618 368 605 399 580 c 0
 414 567 425 555 437 537 c 0
 465 495 483 436 490 361 c 0
 492 337 492 277 490 253 c 0
 483 178 465 119 437 78 c 0
 429 64 424 59 415 49 c 0
 387 20 350 2 303 -4 c 0
 291 -6 255 -6 243 -4 c 0
 190 3 149 26 120 62 c 0
 90 99 69 156 60 223 c 0
 55 255 56 266 56 322 c 0
 56 386 57 428 62 477 c 0
 77 632 115 732 177 785 c 0
 205 809 244 823 279 828 c 0
 284 829 289 829 291 829 c 0
282 572 m 0
 272 575 263 573 250 566 c 0
 228 555 208 532 192 499 c 0
 174 462 162 417 157 360 c 0
 155 336 155 279 157 255 c 0
 162 198 174 153 192 116 c 0
 208 82 228 58 252 47 c 0
 268 39 278 39 295 47 c 0
 318 58 338 82 354 116 c 0
 372 153 384 198 389 255 c 0
 391 279 391 336 389 360 c 0
 384 417 372 462 354 499 c 0
 341 524 327 543 311 556 c 0
 303 563 290 570 282 572 c 0
EndSplineSet
Validated: 33
EndChar

StartChar: seven
Encoding: 55 55 22
Width: 485
VWidth: 910
Flags: HW
LayerCount: 2
Fore
SplineSet
66 818 m 0
 69 818 150 819 246 819 c 2
 421 818 l 1
 428 816 l 2
 438 813 446 810 451 805 c 0
 456 799 456 798 448 775 c 0
 409 671 161 19 159 17 c 0
 156 12 148 7 135 3 c 0
 124 0 99 0 88 3 c 0
 73 7 65 12 61 19 c 0
 60 23 60 23 62 28 c 0
 63 31 127 199 204 402 c 0
 281 606 344 772 344 773 c 2
 205 773 l 1
 66 774 l 1
 57 776 l 2
 42 780 33 786 31 793 c 0
 27 804 42 814 66 818 c 0
EndSplineSet
Validated: 33
EndChar

StartChar: eight
Encoding: 56 56 23
Width: 546
VWidth: 910
Flags: HW
LayerCount: 2
Fore
SplineSet
250 824 m 0
 263 825 294 824 309 822 c 0
 390 810 449 759 474 682 c 0
 481 659 484 639 484 613 c 0
 484 594 484 591 482 581 c 0
 478 566 475 555 469 542 c 0
 451 504 414 468 355 430 c 2
 340 420 l 1
 352 412 l 2
 367 402 388 388 403 376 c 0
 417 364 441 342 450 330 c 0
 471 305 483 278 489 250 c 0
 491 240 491 237 491 218 c 0
 491 196 490 185 486 167 c 0
 473 108 442 58 396 29 c 0
 371 13 341 1 307 -4 c 0
 292 -6 254 -6 239 -4 c 0
 205 1 175 13 150 29 c 0
 104 58 73 108 60 167 c 0
 56 185 56 196 56 218 c 0
 56 238 55 240 57 252 c 0
 61 267 65 277 71 290 c 0
 91 332 131 369 202 413 c 0
 207 417 212 420 212 420 c 1
 212 420 210 421 208 422 c 0
 200 427 178 442 166 450 c 0
 148 464 132 476 117 491 c 0
 86 522 70 551 63 587 c 0
 61 598 61 629 63 644 c 0
 68 680 80 709 98 737 c 0
 132 787 184 817 250 824 c 0
281 777 m 0
 272 779 264 779 253 774 c 0
 212 758 177 709 167 654 c 0
 155 596 166 556 205 514 c 0
 213 505 227 492 241 482 c 0
 251 474 275 459 276 459 c 0
 277 459 299 474 309 482 c 0
 374 531 395 581 380 654 c 0
 371 701 344 743 309 765 c 0
 301 770 288 775 281 777 c 0
298 367 m 0
 292 371 285 375 281 378 c 2
 276 381 l 1
 258 369 l 2
 248 363 236 354 231 350 c 0
 189 318 166 287 158 248 c 0
 156 240 157 235 157 218 c 0
 157 196 157 185 162 167 c 0
 171 129 188 97 212 73 c 0
 231 54 256 41 273 41 c 0
 290 41 315 54 334 73 c 0
 349 88 359 102 370 124 c 0
 384 153 390 183 390 218 c 0
 390 239 389 246 384 261 c 0
 372 297 344 333 298 367 c 0
EndSplineSet
Validated: 33
EndChar

StartChar: nine
Encoding: 57 57 24
Width: 546
VWidth: 910
Flags: HW
LayerCount: 2
Fore
SplineSet
250 824 m 0
 261 825 296 824 307 823 c 0
 358 815 398 792 426 757 c 0
 456 720 477 663 486 596 c 0
 491 564 491 553 491 497 c 0
 491 433 489 391 484 342 c 0
 469 201 438 106 384 50 c 0
 354 18 314 -2 269 -9 c 0
 254 -11 223 -11 208 -9 c 0
 152 -1 110 27 89 69 c 0
 85 76 84 80 86 85 c 0
 90 90 99 96 112 99 c 0
 121 102 145 103 155 101 c 0
 173 97 182 92 188 80 c 0
 195 65 203 55 214 47 c 0
 220 42 232 36 237 35 c 0
 241 35 248 37 257 42 c 0
 296 62 329 110 351 179 c 0
 356 193 362 216 362 217 c 1
 361 217 357 215 352 213 c 0
 326 203 297 198 266 199 c 0
 218 201 178 214 147 239 c 0
 132 252 121 264 109 283 c 0
 81 324 63 383 56 458 c 0
 54 482 54 542 56 566 c 0
 63 641 81 700 109 742 c 0
 117 755 122 760 131 770 c 0
 161 801 200 819 250 824 c 0
282 776 m 0
 272 779 263 778 250 771 c 0
 228 760 208 737 192 704 c 0
 174 667 162 621 157 564 c 0
 155 540 155 484 157 460 c 0
 162 403 174 357 192 320 c 0
 208 286 228 263 252 252 c 0
 268 244 278 244 295 252 c 0
 318 263 338 286 354 320 c 0
 372 357 384 403 389 460 c 0
 391 484 391 540 389 564 c 0
 384 621 372 667 354 704 c 0
 341 729 327 748 311 761 c 0
 303 768 290 774 282 776 c 0
EndSplineSet
Validated: 33
EndChar

StartChar: colon
Encoding: 58 58 25
Width: 182
VWidth: 910
Flags: HW
LayerCount: 2
Fore
SplineSet
75 613 m 0
 108 617 143 608 150 593 c 0
 156 580 146 568 123 563 c 0
 75 550 19 568 32 593 c 0
 37 602 54 610 75 613 c 0
75 55 m 0
 108 59 143 50 150 35 c 0
 156 22 146 10 123 5 c 0
 75 -8 19 10 32 35 c 0
 37 44 54 52 75 55 c 0
EndSplineSet
Validated: 33
EndChar

StartChar: semicolon
Encoding: 59 59 26
Width: 182
VWidth: 910
Flags: HW
LayerCount: 2
Fore
SplineSet
75 618 m 0
 108 622 143 613 150 598 c 0
 156 585 146 573 123 568 c 0
 75 555 19 573 32 598 c 0
 37 607 54 615 75 618 c 0
77 46 m 0
 97 49 121 44 133 36 c 0
 140 31 142 28 142 19 c 0
 142 -17 131 -61 114 -96 c 0
 109 -108 105 -110 97 -114 c 0
 86 -119 79 -120 61 -120 c 0
 46 -120 42 -120 36 -118 c 0
 28 -116 21 -113 16 -109 c 0
 13 -106 10 -101 10 -97 c 0
 10 -96 12 -90 16 -82 c 0
 31 -52 39 -21 41 14 c 0
 41 21 42 27 43 28 c 0
 47 36 60 43 77 46 c 0
EndSplineSet
Validated: 33
EndChar

StartChar: less
Encoding: 60 60 27
Width: 607
VWidth: 910
Flags: HW
LayerCount: 2
Fore
SplineSet
512 613 m 0
 520 614 541 614 550 612 c 0
 575 606 584 593 572 581 c 0
 569 579 472 517 355 442 c 0
 238 367 143 307 143 307 c 1
 143 307 239 246 356 172 c 0
 473 97 570 35 572 33 c 0
 579 27 578 19 572 13 c 0
 567 8 559 6 549 3 c 0
 543 1 539 1 526 1 c 0
 509 1 502 1 492 6 c 0
 485 10 39 294 35 298 c 0
 29 304 29 311 35 317 c 0
 38 320 478 601 489 606 c 0
 494 609 504 612 512 613 c 0
EndSplineSet
Validated: 33
EndChar

StartChar: equal
Encoding: 61 61 28
Width: 607
VWidth: 910
Flags: HW
LayerCount: 2
Fore
SplineSet
66 432 m 0
 69 432 178 433 307 433 c 2
 542 432 l 1
 550 431 l 2
 575 425 584 412 572 400 c 0
 567 395 559 393 549 390 c 2
 542 388 l 1
 304 388 l 1
 66 388 l 1
 58 390 l 2
 43 394 33 400 31 407 c 0
 27 418 42 428 66 432 c 0
66 228 m 0
 69 228 178 228 307 228 c 2
 542 228 l 1
 550 226 l 2
 575 220 584 207 572 195 c 0
 567 190 559 188 549 185 c 2
 542 183 l 1
 304 183 l 1
 66 183 l 1
 58 185 l 2
 43 189 33 195 31 202 c 0
 27 213 42 224 66 228 c 0
EndSplineSet
Validated: 33
EndChar

StartChar: greater
Encoding: 62 62 29
Width: 607
VWidth: 910
Flags: HW
LayerCount: 2
Fore
SplineSet
66 613 m 0
 69 613 78 614 85 614 c 0
 99 613 108 612 116 608 c 0
 123 604 568 321 572 317 c 0
 578 311 578 304 572 298 c 0
 568 294 123 10 116 6 c 0
 106 1 98 1 82 1 c 0
 68 1 64 1 58 3 c 0
 33 9 23 22 35 33 c 0
 37 35 134 97 251 172 c 0
 368 246 464 307 464 307 c 1
 464 307 369 367 252 442 c 0
 135 517 38 579 35 581 c 0
 28 588 28 595 35 602 c 0
 41 607 51 611 66 613 c 0
EndSplineSet
Validated: 33
EndChar

StartChar: question
Encoding: 63 63 30
Width: 485
VWidth: 910
Flags: HW
LayerCount: 2
Fore
SplineSet
225 824 m 0
 231 825 267 824 276 823 c 0
 305 818 329 809 351 796 c 0
 407 761 442 695 453 603 c 0
 455 582 455 539 452 523 c 0
 446 482 433 447 413 415 c 0
 387 373 353 341 307 316 c 2
 293 309 l 1
 293 244 l 2
 293 172 293 176 287 171 c 0
 274 160 243 156 218 162 c 0
 206 165 197 171 193 177 c 0
 191 181 191 320 193 324 c 0
 196 329 202 333 213 338 c 0
 280 368 332 431 348 506 c 0
 353 527 353 538 353 563 c 0
 353 588 354 598 349 622 c 0
 338 695 303 753 261 774 c 0
 247 779 238 779 224 774 c 0
 182 753 148 695 137 622 c 0
 134 605 132 592 131 571 c 2
 130 555 l 1
 127 552 l 2
 123 547 115 543 105 540 c 0
 98 538 94 538 81 538 c 0
 67 538 63 538 56 540 c 0
 46 543 38 547 34 552 c 2
 31 555 l 1
 31 573 l 2
 31 600 35 628 42 658 c 0
 67 755 127 813 213 823 c 0
 218 824 223 824 225 824 c 0
228 46 m 0
 236 47 258 46 267 44 c 0
 281 40 291 33 293 26 c 0
 295 16 285 8 266 3 c 0
 255 0 230 0 219 3 c 0
 200 8 190 15 192 26 c 0
 194 34 208 43 228 46 c 0
EndSplineSet
Validated: 33
EndChar

StartChar: at
Encoding: 64 64 31
Width: 728
VWidth: 910
Flags: HW
LayerCount: 2
Fore
SplineSet
343 733 m 0
 350 734 392 733 403 732 c 0
 458 725 503 706 544 674 c 0
 556 664 578 643 588 630 c 0
 634 572 663 496 672 407 c 0
 674 389 674 337 672 321 c 0
 666 268 651 223 629 184 c 0
 587 109 531 71 465 74 c 0
 443 75 426 79 413 86 c 0
 407 90 406 91 403 90 c 0
 390 86 363 84 345 86 c 0
 305 90 276 103 253 125 c 0
 243 136 234 148 228 163 c 0
 213 195 204 234 199 297 c 0
 197 317 197 412 199 433 c 0
 205 522 221 572 253 604 c 0
 276 626 305 639 345 643 c 0
 359 644 379 644 392 642 c 0
 432 635 461 616 477 586 c 2
 482 579 l 1
 482 359 l 2
 482 191 482 138 483 137 c 0
 484 135 485 135 493 144 c 0
 529 180 556 237 566 297 c 0
 581 383 566 485 527 561 c 0
 500 615 462 653 421 674 c 0
 400 684 385 686 364 686 c 0
 354 686 347 686 342 685 c 0
 297 676 252 642 219 592 c 0
 178 530 156 449 156 364 c 0
 156 269 185 178 235 116 c 0
 256 90 282 69 307 56 c 0
 322 48 323 47 330 50 c 0
 342 55 348 56 365 56 c 0
 380 56 382 56 390 54 c 0
 411 49 422 38 422 25 c 0
 422 12 411 3 390 -3 c 0
 381 -5 379 -5 360 -5 c 0
 348 -5 335 -5 330 -4 c 0
 271 3 226 22 184 55 c 0
 172 65 150 85 140 99 c 0
 125 117 108 144 97 167 c 0
 75 213 61 263 56 322 c 0
 54 337 54 391 56 407 c 0
 61 455 70 495 86 535 c 0
 104 583 129 621 161 653 c 0
 190 682 221 700 259 715 c 0
 278 722 308 730 330 732 c 0
 335 733 341 733 343 733 c 0
370 588 m 0
 367 591 364 593 362 594 c 2
 360 596 l 1
 353 592 l 2
 342 584 335 573 327 557 c 0
 312 527 305 491 300 431 c 0
 298 410 298 319 300 299 c 0
 305 237 312 202 327 172 c 0
 336 154 346 142 358 135 c 2
 360 133 l 1
 365 137 l 2
 370 141 376 148 379 154 c 2
 380 157 l 1
 380 365 l 1
 380 573 l 1
 377 578 l 2
 375 581 372 585 370 588 c 0
EndSplineSet
Validated: 33
EndChar

StartChar: A
Encoding: 65 65 32
Width: 576
VWidth: 910
Flags: HW
LayerCount: 2
Fore
SplineSet
228 818 m 0
 231 818 259 819 291 819 c 0
 347 818 350 818 357 816 c 0
 361 815 366 814 369 813 c 0
 375 810 381 804 383 800 c 0
 383 799 417 624 458 411 c 0
 513 122 531 23 531 20 c 0
 529 14 519 7 504 3 c 0
 498 1 495 1 482 1 c 0
 465 1 455 1 445 6 c 0
 439 9 432 15 431 19 c 0
 431 21 414 104 395 203 c 0
 377 302 361 384 360 385 c 0
 360 387 356 387 289 387 c 0
 221 387 216 387 216 385 c 0
 215 384 199 302 181 203 c 0
 162 104 146 21 146 19 c 0
 145 15 137 9 131 6 c 0
 121 1 112 1 96 1 c 0
 82 1 78 1 73 3 c 0
 58 7 48 14 46 20 c 0
 46 23 63 122 118 411 c 0
 159 624 193 799 193 800 c 0
 195 804 202 810 207 813 c 0
 213 815 221 817 228 818 c 0
351 437 m 2
 350 440 336 515 319 605 c 2
 288 769 l 1
 257 602 l 2
 240 510 225 434 225 434 c 2
 225 433 254 433 289 433 c 2
 351 433 l 1
 351 437 l 2
EndSplineSet
Validated: 1
EndChar

StartChar: B
Encoding: 66 66 33
Width: 546
VWidth: 910
Flags: HW
LayerCount: 2
Fore
SplineSet
81 818 m 0
 94 820 137 820 172 816 c 0
 312 804 416 760 460 693 c 0
 492 646 495 583 470 530 c 0
 455 501 436 477 406 454 c 0
 389 441 359 425 334 416 c 0
 327 413 321 411 321 411 c 1
 321 411 325 409 329 408 c 0
 375 392 414 367 441 338 c 0
 466 312 482 283 489 249 c 0
 491 238 491 236 491 217 c 0
 491 198 491 195 489 185 c 0
 485 170 481 159 476 146 c 0
 460 112 432 85 390 61 c 0
 324 24 219 1 111 1 c 0
 81 1 79 1 73 3 c 0
 53 8 44 16 46 26 c 0
 47 30 52 35 57 38 c 2
 61 40 l 1
 61 217 l 1
 61 393 l 1
 57 395 l 2
 52 398 46 403 46 407 c 0
 44 414 49 420 57 425 c 2
 61 427 l 1
 61 603 l 1
 61 779 l 1
 57 781 l 2
 55 782 52 784 50 786 c 0
 37 799 52 813 81 818 c 0
181 767 m 0
 174 768 166 769 165 769 c 2
 162 769 l 1
 162 601 l 1
 162 433 l 1
 179 433 l 2
 237 435 291 454 330 487 c 0
 368 519 387 563 385 610 c 0
 384 631 379 647 372 664 c 0
 362 685 349 700 328 715 c 0
 295 740 242 759 181 767 c 0
208 384 m 0
 202 385 189 386 179 387 c 2
 162 387 l 1
 162 218 l 1
 162 49 l 1
 165 50 l 2
 167 50 175 51 183 52 c 0
 291 66 362 107 383 171 c 0
 388 186 390 197 390 217 c 0
 390 237 388 248 383 263 c 0
 362 327 294 373 208 384 c 0
EndSplineSet
Validated: 33
EndChar

StartChar: C
Encoding: 67 67 34
Width: 546
VWidth: 910
Flags: HW
LayerCount: 2
Fore
SplineSet
248 824 m 0
 259 825 299 824 314 823 c 0
 341 819 360 814 384 807 c 0
 413 797 435 787 461 771 c 0
 479 758 501 739 505 734 c 0
 510 724 500 712 480 707 c 0
 475 706 470 706 456 706 c 0
 441 706 437 706 431 708 c 0
 420 711 415 714 408 721 c 0
 372 753 330 772 289 777 c 0
 269 779 256 777 242 769 c 0
 201 744 174 680 163 584 c 0
 158 534 157 502 157 410 c 0
 157 318 158 285 163 235 c 0
 175 129 208 60 255 44 c 0
 267 40 286 41 309 46 c 0
 344 53 378 71 408 98 c 0
 415 105 420 108 431 111 c 0
 437 113 441 113 456 113 c 0
 470 113 475 113 480 112 c 0
 500 107 510 96 505 86 c 0
 500 78 467 52 442 37 c 0
 410 19 371 5 333 0 c 0
 308 -5 300 -5 274 -5 c 0
 252 -5 246 -5 235 -3 c 0
 200 2 171 14 149 30 c 0
 96 69 68 144 59 268 c 0
 55 309 56 330 56 410 c 0
 56 490 55 511 59 552 c 0
 73 734 126 811 248 824 c 0
EndSplineSet
Validated: 33
EndChar

StartChar: D
Encoding: 68 68 35
Width: 530
VWidth: 910
Flags: HW
LayerCount: 2
Fore
SplineSet
81 818 m 0
 97 821 136 818 167 813 c 0
 243 800 310 767 365 714 c 0
 434 648 477 557 489 454 c 0
 491 434 491 385 489 365 c 0
 477 262 434 172 365 106 c 0
 310 53 243 19 167 6 c 0
 130 0 89 -2 73 3 c 0
 48 9 39 22 50 33 c 0
 52 35 55 37 57 38 c 2
 61 40 l 1
 61 410 l 1
 61 779 l 1
 57 781 l 2
 55 782 52 784 50 786 c 0
 37 799 52 813 81 818 c 0
172 759 m 0
 167 761 163 762 163 762 c 2
 162 762 162 624 162 410 c 0
 162 196 162 57 163 57 c 0
 165 57 180 62 189 67 c 0
 279 108 351 199 378 310 c 0
 386 344 389 372 389 410 c 0
 389 441 388 453 383 480 c 0
 377 519 363 561 345 597 c 0
 327 632 306 663 278 690 c 0
 247 721 208 746 172 759 c 0
EndSplineSet
Validated: 33
EndChar

StartChar: E
Encoding: 69 69 36
Width: 530
VWidth: 910
Flags: HW
LayerCount: 2
Fore
SplineSet
81 818 m 0
 84 818 169 819 269 819 c 2
 451 818 l 1
 459 816 l 2
 468 813 476 811 481 806 c 0
 492 795 483 782 459 776 c 2
 451 774 l 1
 307 773 l 1
 162 773 l 1
 162 615 l 1
 162 457 l 1
 291 457 l 1
 421 456 l 1
 428 454 l 2
 453 448 462 435 449 423 c 0
 444 418 438 416 428 413 c 2
 421 411 l 1
 291 411 l 1
 162 411 l 1
 162 228 l 1
 162 46 l 1
 307 46 l 1
 451 46 l 1
 459 44 l 2
 468 41 476 38 481 33 c 0
 492 22 483 9 458 3 c 2
 451 1 l 1
 266 1 l 1
 81 1 l 1
 73 3 l 2
 54 8 44 15 46 26 c 0
 47 30 52 35 57 38 c 2
 61 40 l 1
 61 228 l 1
 61 417 l 1
 57 419 l 2
 52 422 46 427 46 431 c 0
 44 438 49 444 57 449 c 2
 61 451 l 1
 61 615 l 1
 61 779 l 1
 57 781 l 2
 55 782 52 784 50 786 c 0
 37 799 52 813 81 818 c 0
EndSplineSet
Validated: 33
EndChar

StartChar: F
Encoding: 70 70 37
Width: 530
VWidth: 910
Flags: HW
LayerCount: 2
Fore
SplineSet
81 818 m 0
 84 818 169 819 269 819 c 2
 451 818 l 1
 459 816 l 2
 468 813 476 811 481 806 c 0
 492 795 483 782 459 776 c 2
 451 774 l 1
 307 773 l 1
 162 773 l 1
 162 615 l 1
 162 457 l 1
 291 457 l 1
 421 456 l 1
 428 454 l 2
 453 448 462 435 449 423 c 0
 444 418 438 416 428 413 c 2
 421 411 l 1
 291 411 l 1
 162 411 l 1
 162 216 l 2
 162 -7 163 17 153 10 c 0
 128 -6 73 -2 62 18 c 0
 61 21 61 48 61 218 c 2
 61 417 l 1
 57 419 l 2
 52 422 46 427 46 431 c 0
 44 438 49 444 57 449 c 2
 61 451 l 1
 61 615 l 1
 61 779 l 1
 57 781 l 2
 55 782 52 784 50 786 c 0
 37 799 52 813 81 818 c 0
EndSplineSet
Validated: 33
EndChar

StartChar: G
Encoding: 71 71 38
Width: 546
VWidth: 910
Flags: HW
LayerCount: 2
Fore
SplineSet
248 824 m 0
 252 824 263 825 272 825 c 0
 348 825 419 801 470 755 c 0
 493 734 495 727 486 718 c 0
 477 710 462 705 441 705 c 0
 426 705 415 707 406 712 c 0
 401 714 398 716 389 725 c 0
 365 747 343 761 317 770 c 0
 302 775 291 777 276 777 c 0
 263 777 261 778 255 776 c 0
 208 759 175 690 163 584 c 0
 158 534 157 502 157 410 c 0
 157 318 158 285 163 235 c 0
 175 129 208 61 255 44 c 0
 261 42 263 42 276 42 c 0
 286 42 292 42 299 44 c 0
 329 50 357 65 382 88 c 2
 390 96 l 1
 390 241 l 1
 390 387 l 1
 324 387 l 2
 258 388 256 388 250 390 c 0
 232 395 223 402 223 411 c 0
 223 419 232 426 250 431 c 2
 259 433 l 1
 365 433 l 1
 471 433 l 1
 479 431 l 2
 504 425 513 411 501 400 c 0
 499 397 496 396 494 395 c 2
 492 394 l 1
 492 241 l 2
 492 111 492 88 491 86 c 0
 489 83 470 65 461 57 c 0
 428 31 389 12 344 3 c 0
 268 -14 195 -4 149 30 c 0
 96 69 68 144 59 268 c 0
 55 309 56 330 56 410 c 0
 56 490 55 511 59 552 c 0
 71 713 115 791 206 816 c 0
 219 820 234 823 248 824 c 0
EndSplineSet
Validated: 33
EndChar

StartChar: H
Encoding: 72 72 39
Width: 546
VWidth: 910
Flags: HW
LayerCount: 2
Fore
SplineSet
97 818 m 0
 117 821 141 817 153 809 c 0
 163 802 162 823 162 628 c 2
 162 457 l 1
 274 457 l 1
 385 457 l 1
 385 628 l 2
 385 775 385 798 386 801 c 0
 389 805 395 810 400 813 c 0
 423 823 460 821 477 809 c 0
 487 802 486 823 486 624 c 2
 486 450 l 1
 489 449 l 2
 494 447 500 441 500 437 c 0
 502 432 500 428 495 424 c 0
 493 421 491 420 489 419 c 2
 486 418 l 1
 486 219 l 2
 486 -9 487 17 477 10 c 0
 452 -6 397 -2 386 18 c 0
 385 21 385 49 385 216 c 2
 385 411 l 1
 274 411 l 1
 162 411 l 1
 162 216 l 2
 162 -7 163 17 153 10 c 0
 128 -6 73 -2 62 18 c 0
 61 21 61 48 61 218 c 2
 61 417 l 1
 57 419 l 2
 52 422 46 427 46 431 c 0
 44 438 49 444 57 449 c 2
 61 451 l 1
 61 624 l 2
 61 773 61 798 62 801 c 0
 67 809 80 815 97 818 c 0
EndSplineSet
Validated: 33
EndChar

StartChar: I
Encoding: 73 73 40
Width: 334
VWidth: 910
Flags: HW
LayerCount: 2
Fore
SplineSet
137 818 m 0
 140 818 155 819 170 819 c 0
 195 818 199 818 206 816 c 0
 234 809 241 793 221 781 c 2
 218 779 l 1
 218 410 l 1
 218 40 l 1
 221 38 l 2
 226 34 231 30 232 26 c 0
 235 16 225 8 205 3 c 0
 198 1 194 1 167 1 c 0
 139 1 136 1 129 3 c 0
 100 10 93 26 113 38 c 2
 117 40 l 1
 117 410 l 1
 117 779 l 1
 113 781 l 2
 108 785 103 789 102 793 c 0
 99 805 112 814 137 818 c 0
EndSplineSet
Validated: 33
EndChar

StartChar: J
Encoding: 74 74 41
Width: 455
VWidth: 910
Flags: HW
LayerCount: 2
Fore
SplineSet
314 818 m 0
 317 818 332 819 348 819 c 0
 373 818 376 818 383 816 c 0
 407 810 416 797 404 786 c 0
 402 783 400 782 398 781 c 2
 395 780 l 1
 395 451 l 2
 395 91 395 115 390 98 c 0
 377 62 345 32 299 15 c 0
 282 9 257 3 235 1 c 0
 200 -2 158 3 127 15 c 0
 81 32 47 62 35 98 c 0
 30 113 28 131 32 137 c 0
 35 142 43 148 57 152 c 0
 62 154 66 154 81 154 c 0
 95 154 99 154 104 152 c 0
 118 148 126 142 129 137 c 0
 130 135 131 131 131 127 c 0
 133 101 146 77 168 62 c 0
 175 57 190 51 197 48 c 0
 205 46 220 46 228 48 c 0
 240 52 256 60 266 69 c 0
 277 79 287 96 291 111 c 2
 294 118 l 1
 294 449 l 1
 294 779 l 1
 290 781 l 2
 288 782 285 784 283 786 c 0
 270 799 285 813 314 818 c 0
EndSplineSet
Validated: 33
EndChar

StartChar: K
Encoding: 75 75 42
Width: 530
VWidth: 910
Flags: HW
LayerCount: 2
Fore
SplineSet
97 818 m 0
 104 819 119 819 127 818 c 0
 142 816 155 809 160 803 c 0
 161 801 162 798 162 668 c 2
 163 536 l 1
 275 670 l 2
 337 744 388 805 390 807 c 0
 404 819 438 823 463 815 c 0
 471 813 480 808 482 803 c 0
 485 799 486 794 483 790 c 0
 482 789 425 719 355 635 c 0
 285 552 217 471 204 456 c 2
 180 428 l 1
 186 430 l 2
 210 437 246 433 258 421 c 0
 260 419 310 329 372 223 c 0
 458 73 484 28 485 25 c 0
 485 20 483 15 476 10 c 0
 465 3 448 -1 430 0 c 0
 412 1 396 7 390 14 c 0
 388 16 342 92 276 209 c 0
 215 315 165 402 164 404 c 0
 162 406 162 391 162 213 c 0
 162 -7 163 17 153 10 c 0
 128 -6 73 -2 62 18 c 0
 60 22 60 797 62 801 c 0
 67 809 80 815 97 818 c 0
EndSplineSet
Validated: 33
EndChar

StartChar: L
Encoding: 76 76 43
Width: 516
VWidth: 910
Flags: HW
LayerCount: 2
Fore
SplineSet
97 818 m 0
 104 819 119 819 127 818 c 0
 142 816 156 809 160 802 c 0
 162 799 162 784 162 422 c 2
 162 46 l 1
 307 46 l 1
 451 46 l 1
 459 44 l 2
 474 40 483 33 485 26 c 0
 489 17 478 8 458 3 c 2
 451 1 l 1
 266 1 l 1
 81 1 l 1
 73 3 l 2
 54 8 44 15 46 26 c 0
 47 30 52 35 57 38 c 2
 61 40 l 1
 61 420 l 2
 61 748 61 798 62 801 c 0
 67 809 80 815 97 818 c 0
EndSplineSet
Validated: 33
EndChar

StartChar: M
Encoding: 77 77 44
Width: 789
VWidth: 910
Flags: HW
LayerCount: 2
Fore
SplineSet
97 818 m 0
 100 818 109 819 116 819 c 0
 130 818 138 817 148 812 c 0
 159 807 149 833 278 512 c 0
 342 352 395 220 395 220 c 1
 395 220 447 352 512 511 c 0
 618 773 630 802 633 806 c 0
 646 819 682 823 707 815 c 0
 716 812 725 807 727 802 c 0
 729 799 729 785 729 410 c 0
 729 35 729 20 727 17 c 0
 725 12 716 8 707 5 c 0
 688 -1 661 -1 644 6 c 0
 639 9 632 14 630 17 c 0
 629 19 628 80 628 280 c 2
 628 542 l 1
 536 313 l 2
 434 60 443 81 432 76 c 0
 407 64 365 66 350 81 c 0
 347 84 338 106 255 313 c 2
 163 542 l 1
 162 280 l 2
 162 21 161 18 160 16 c 0
 158 14 156 12 153 10 c 0
 128 -6 73 -1 62 18 c 0
 60 22 60 797 62 801 c 0
 67 809 79 815 97 818 c 0
EndSplineSet
Validated: 33
EndChar

StartChar: N
Encoding: 78 78 45
Width: 546
VWidth: 910
Flags: HW
LayerCount: 2
Fore
SplineSet
97 818 m 0
 100 818 109 819 116 819 c 0
 130 818 138 817 148 812 c 0
 159 807 149 830 273 535 c 2
 385 268 l 1
 385 533 l 2
 385 738 386 800 387 802 c 0
 389 805 395 810 400 813 c 0
 417 820 445 821 464 815 c 0
 473 812 482 807 484 802 c 0
 486 799 486 785 486 410 c 0
 486 35 486 20 484 17 c 0
 482 12 473 8 464 5 c 0
 444 -1 416 -1 399 7 c 0
 388 12 399 -11 274 285 c 2
 163 552 l 1
 162 285 l 2
 162 22 161 18 160 16 c 0
 158 14 156 12 153 10 c 0
 128 -6 73 -1 62 18 c 0
 60 22 60 797 62 801 c 0
 67 809 79 815 97 818 c 0
EndSplineSet
Validated: 33
EndChar

StartChar: O
Encoding: 79 79 46
Width: 698
VWidth: 910
Flags: HW
LayerCount: 2
Fore
SplineSet
327 824 m 0
 336 825 377 824 388 823 c 0
 454 814 506 789 549 743 c 0
 617 671 658 547 658 410 c 0
 658 273 617 148 549 76 c 0
 506 30 455 5 387 -4 c 0
 371 -6 327 -6 311 -4 c 0
 243 5 192 30 149 76 c 0
 97 131 61 216 47 314 c 0
 22 482 63 653 149 743 c 0
 195 792 251 818 327 824 c 0
366 776 m 0
 342 781 318 777 293 764 c 0
 233 733 185 660 160 563 c 0
 120 406 146 220 223 117 c 0
 244 89 268 69 294 55 c 0
 331 37 367 37 404 55 c 0
 464 86 513 159 538 257 c 0
 578 414 552 599 475 702 c 0
 443 744 405 771 366 776 c 0
EndSplineSet
Validated: 33
EndChar

StartChar: P
Encoding: 80 80 47
Width: 530
VWidth: 910
Flags: HW
LayerCount: 2
Fore
SplineSet
81 818 m 0
 88 819 140 818 162 817 c 0
 209 812 249 807 285 798 c 0
 402 769 470 716 486 641 c 0
 495 602 490 564 473 529 c 0
 442 468 366 423 255 401 c 0
 229 396 180 390 167 390 c 2
 162 390 l 1
 162 205 l 2
 162 -5 163 17 153 10 c 0
 128 -6 73 -2 62 18 c 0
 61 21 61 48 61 207 c 2
 61 393 l 1
 57 395 l 2
 52 398 46 403 46 407 c 0
 44 414 49 420 57 425 c 2
 61 427 l 1
 61 603 l 1
 61 779 l 1
 57 781 l 2
 55 782 52 784 50 786 c 0
 37 799 52 813 81 818 c 0
180 767 m 0
 173 768 167 769 165 769 c 2
 162 770 l 1
 162 603 l 1
 162 436 l 1
 165 437 l 2
 167 437 173 438 180 439 c 0
 261 448 326 475 358 513 c 0
 367 524 371 530 376 542 c 0
 386 562 389 578 389 603 c 0
 389 628 386 644 376 664 c 0
 371 676 367 682 358 693 c 0
 326 731 261 758 180 767 c 0
EndSplineSet
Validated: 33
EndChar

StartChar: Q
Encoding: 81 81 48
Width: 698
VWidth: 910
Flags: HW
LayerCount: 2
Fore
SplineSet
327 824 m 0
 336 825 377 824 388 823 c 0
 454 814 506 789 549 743 c 0
 606 683 643 588 654 476 c 0
 668 348 642 213 587 126 c 2
 582 117 l 1
 609 74 l 2
 624 50 636 28 637 26 c 0
 638 23 638 23 637 20 c 0
 633 12 625 7 610 3 c 0
 599 0 574 0 564 3 c 0
 554 6 545 10 541 14 c 0
 540 16 534 24 529 33 c 0
 524 41 519 48 519 48 c 1
 519 48 516 47 512 44 c 0
 490 28 461 13 433 5 c 0
 405 -2 384 -5 350 -5 c 0
 322 -5 311 -4 288 1 c 0
 207 16 144 65 100 146 c 0
 44 249 26 401 53 537 c 0
 76 654 127 740 201 786 c 0
 236 808 277 819 327 824 c 0
366 776 m 0
 342 781 318 777 293 764 c 0
 233 733 185 660 160 563 c 0
 120 406 146 220 223 117 c 0
 264 61 317 35 366 43 c 0
 402 48 440 73 471 112 c 2
 476 118 l 1
 453 156 l 2
 438 181 431 194 430 196 c 0
 429 205 438 213 457 218 c 0
 462 220 466 219 480 219 c 0
 497 219 506 218 517 212 c 0
 521 211 524 209 524 209 c 2
 525 210 535 243 538 257 c 0
 578 414 552 599 475 702 c 0
 443 744 405 771 366 776 c 0
EndSplineSet
Validated: 33
EndChar

StartChar: R
Encoding: 82 82 49
Width: 546
VWidth: 910
Flags: HW
LayerCount: 2
Fore
SplineSet
81 818 m 0
 88 819 120 819 143 818 c 0
 289 811 396 778 455 722 c 0
 465 713 474 704 481 692 c 0
 515 640 515 566 481 515 c 0
 447 462 379 426 283 405 c 2
 269 402 l 1
 388 216 l 2
 453 113 505 27 506 26 c 0
 508 16 498 8 480 3 c 0
 469 0 444 0 433 3 c 0
 423 6 415 9 411 14 c 0
 409 16 354 101 289 203 c 0
 225 305 173 390 172 390 c 2
 172 390 170 390 167 389 c 2
 162 389 l 1
 162 205 l 2
 162 -5 163 17 153 10 c 0
 128 -6 73 -2 62 18 c 0
 61 21 61 48 61 207 c 2
 61 393 l 1
 57 395 l 2
 52 398 46 403 46 407 c 0
 44 414 49 420 57 425 c 2
 61 427 l 1
 61 603 l 1
 61 779 l 1
 57 781 l 2
 55 782 52 784 50 786 c 0
 37 799 52 813 81 818 c 0
192 767 m 0
 184 768 174 769 169 770 c 2
 162 770 l 1
 162 603 l 1
 162 436 l 1
 169 436 l 2
 203 439 245 447 272 455 c 0
 348 478 392 519 403 577 c 0
 405 589 405 617 403 630 c 0
 398 656 386 680 367 699 c 0
 332 734 274 757 192 767 c 0
EndSplineSet
Validated: 33
EndChar

StartChar: S
Encoding: 83 83 50
Width: 546
VWidth: 910
Flags: HW
LayerCount: 2
Fore
SplineSet
246 823 m 0
 261 825 296 825 313 823 c 0
 394 813 457 776 477 726 c 0
 484 710 488 686 485 679 c 0
 481 673 474 668 459 664 c 0
 454 662 450 662 436 662 c 0
 421 662 417 662 412 664 c 0
 398 668 390 673 387 678 c 0
 386 680 385 685 385 690 c 0
 382 727 357 756 317 771 c 0
 299 777 275 780 263 777 c 0
 228 768 193 736 174 691 c 0
 160 660 153 620 157 591 c 0
 164 535 204 489 294 436 c 0
 340 408 346 404 360 395 c 0
 386 377 414 357 431 338 c 0
 466 301 484 262 486 219 c 0
 488 159 465 97 426 56 c 0
 392 21 349 0 294 -5 c 0
 280 -6 251 -6 235 -4 c 0
 154 6 91 43 70 92 c 0
 63 108 59 133 62 140 c 0
 66 146 73 152 88 156 c 0
 93 158 97 157 112 157 c 0
 126 157 130 158 135 156 c 0
 149 152 157 146 160 141 c 0
 161 139 162 134 162 129 c 0
 164 112 169 98 179 84 c 0
 197 59 232 43 268 41 c 0
 280 41 286 42 299 48 c 0
 319 58 339 77 354 101 c 0
 364 116 374 140 379 160 c 0
 385 185 387 218 382 238 c 0
 375 279 347 317 300 352 c 0
 280 367 265 377 231 397 c 0
 185 423 166 436 140 457 c 0
 125 469 103 490 94 502 c 0
 75 526 62 550 57 576 c 0
 55 586 56 589 56 608 c 0
 56 623 55 631 56 638 c 0
 64 688 84 729 116 762 c 0
 149 797 193 818 246 823 c 0
EndSplineSet
Validated: 33
EndChar

StartChar: T
Encoding: 84 84 51
Width: 516
VWidth: 910
Flags: HW
LayerCount: 2
Fore
SplineSet
81 818 m 0
 84 818 165 819 261 819 c 2
 437 818 l 1
 444 816 l 2
 453 813 461 811 466 806 c 0
 477 795 468 782 444 776 c 0
 437 774 435 774 372 773 c 2
 309 773 l 1
 309 397 l 2
 309 35 309 20 307 17 c 0
 306 15 303 13 299 10 c 0
 274 -6 219 -2 208 18 c 0
 207 21 208 72 208 397 c 2
 208 773 l 1
 148 773 l 2
 110 773 86 773 81 774 c 0
 66 776 51 783 47 790 c 0
 44 794 45 799 48 803 c 0
 52 809 67 816 81 818 c 0
EndSplineSet
Validated: 33
EndChar

StartChar: U
Encoding: 85 85 52
Width: 546
VWidth: 910
Flags: HW
LayerCount: 2
Fore
SplineSet
97 818 m 0
 104 819 119 819 127 818 c 0
 142 816 155 809 160 803 c 0
 161 801 162 797 162 473 c 0
 163 169 163 144 164 138 c 0
 172 104 191 77 218 59 c 0
 243 44 266 38 288 43 c 0
 338 52 378 95 384 147 c 0
 385 152 385 249 385 477 c 0
 385 755 385 798 386 801 c 0
 389 805 395 810 400 813 c 0
 417 820 445 821 464 815 c 0
 473 812 482 807 484 802 c 0
 486 799 486 787 486 471 c 2
 485 144 l 1
 483 135 l 2
 478 108 468 87 451 67 c 0
 419 29 368 3 306 -4 c 0
 293 -6 254 -6 241 -4 c 0
 171 4 116 36 85 83 c 0
 75 98 68 116 64 135 c 2
 62 145 l 1
 61 471 l 2
 61 711 61 798 62 800 c 0
 64 804 71 810 76 813 c 0
 82 815 90 817 97 818 c 0
EndSplineSet
Validated: 33
EndChar

StartChar: V
Encoding: 86 86 53
Width: 576
VWidth: 910
Flags: HW
LayerCount: 2
Fore
SplineSet
81 818 m 0
 84 818 92 819 99 818 c 0
 118 818 132 813 140 806 c 0
 143 804 145 801 146 800 c 0
 146 798 179 629 217 425 c 0
 256 220 288 52 288 51 c 2
 288 51 321 218 359 424 c 0
 398 630 431 799 431 801 c 0
 434 807 443 812 458 816 c 0
 469 819 493 819 504 816 c 0
 519 812 529 805 531 799 c 0
 531 796 513 698 458 409 c 0
 417 196 383 20 383 19 c 0
 381 15 375 9 369 6 c 0
 366 5 361 4 356 3 c 0
 349 1 347 1 289 1 c 0
 230 1 227 1 220 3 c 0
 215 4 211 5 208 6 c 0
 202 9 195 15 193 19 c 0
 191 24 46 794 46 798 c 0
 47 799 47 802 48 804 c 0
 52 809 66 816 81 818 c 0
EndSplineSet
Validated: 33
EndChar

StartChar: W
Encoding: 87 87 54
Width: 819
VWidth: 910
Flags: HW
LayerCount: 2
Fore
SplineSet
81 818 m 0
 84 818 92 819 99 818 c 0
 118 818 132 813 140 806 c 0
 143 804 145 801 146 800 c 0
 146 798 170 650 200 471 c 0
 229 291 254 143 254 143 c 2
 254 142 278 268 307 423 c 0
 335 578 359 706 360 709 c 0
 362 716 372 721 387 725 c 0
 398 728 421 728 432 725 c 0
 447 721 457 716 459 709 c 0
 460 706 484 578 512 423 c 0
 541 268 565 142 565 143 c 2
 565 143 590 291 619 471 c 0
 649 650 674 798 674 800 c 0
 675 804 682 810 688 813 c 0
 698 818 708 818 725 818 c 0
 738 818 741 818 747 816 c 0
 762 812 772 805 774 799 c 0
 774 794 648 22 645 17 c 0
 643 12 634 8 625 5 c 0
 613 0 607 0 562 0 c 0
 523 1 519 1 513 3 c 0
 498 7 488 13 486 20 c 0
 486 22 469 115 448 227 c 0
 427 339 410 430 410 430 c 1
 410 430 392 339 371 227 c 0
 350 115 333 22 333 20 c 0
 331 13 322 7 307 3 c 0
 300 1 297 1 258 0 c 0
 213 0 206 0 194 5 c 0
 185 8 176 12 174 17 c 0
 172 21 46 793 46 798 c 0
 47 799 47 802 48 804 c 0
 52 809 66 816 81 818 c 0
EndSplineSet
Validated: 33
EndChar

StartChar: X
Encoding: 88 88 55
Width: 546
VWidth: 910
Flags: HW
LayerCount: 2
Fore
SplineSet
96 818 m 0
 104 819 126 818 135 816 c 0
 144 814 153 811 157 806 c 0
 160 803 157 808 229 642 c 0
 253 586 273 541 273 541 c 1
 273 541 293 586 317 642 c 0
 387 804 387 803 390 806 c 0
 393 810 403 813 412 816 c 0
 422 819 447 819 458 816 c 0
 473 812 481 807 485 800 c 0
 486 796 486 796 485 792 c 0
 484 790 448 706 404 606 c 0
 361 505 326 422 325 421 c 0
 325 420 364 331 410 223 c 0
 474 76 494 26 494 23 c 0
 494 15 485 8 467 3 c 0
 457 0 432 0 421 3 c 0
 411 5 403 9 399 14 c 0
 395 17 397 11 321 188 c 0
 295 250 273 299 273 299 c 1
 273 299 251 250 225 188 c 0
 149 11 151 17 147 14 c 0
 143 9 135 5 125 3 c 0
 114 0 89 0 79 3 c 0
 61 8 52 15 52 23 c 0
 52 26 73 76 137 223 c 0
 212 396 221 420 220 422 c 0
 220 423 184 507 140 609 c 0
 84 741 61 794 61 796 c 0
 61 802 65 807 74 811 c 0
 79 814 89 817 96 818 c 0
EndSplineSet
Validated: 33
EndChar

StartChar: Y
Encoding: 89 89 56
Width: 546
VWidth: 910
Flags: HW
LayerCount: 2
Fore
SplineSet
96 818 m 0
 104 819 126 818 135 816 c 0
 144 814 153 810 157 806 c 0
 160 802 158 805 229 646 c 0
 253 593 273 550 273 550 c 1
 273 550 293 593 317 646 c 0
 386 801 387 803 390 806 c 0
 393 810 403 813 412 816 c 0
 422 819 447 819 458 816 c 0
 473 812 481 807 485 800 c 0
 486 796 486 796 485 792 c 0
 484 790 448 708 404 611 c 2
 324 432 l 1
 324 226 l 2
 324 -9 325 17 315 10 c 0
 290 -6 235 -2 224 18 c 0
 223 21 223 49 223 226 c 2
 223 430 l 1
 142 611 l 2
 82 746 61 794 61 796 c 0
 61 802 65 807 74 811 c 0
 79 814 89 817 96 818 c 0
EndSplineSet
Validated: 33
EndChar

StartChar: Z
Encoding: 90 90 57
Width: 516
VWidth: 910
Flags: HW
LayerCount: 2
Fore
SplineSet
81 818 m 0
 89 819 426 819 435 818 c 0
 445 816 455 814 461 809 c 0
 468 804 471 801 471 796 c 0
 470 793 400 625 314 420 c 0
 228 215 157 47 157 47 c 2
 157 46 221 46 297 46 c 2
 437 46 l 1
 444 44 l 2
 453 41 461 38 466 33 c 0
 477 22 468 9 444 3 c 2
 437 1 l 1
 263 0 l 2
 141 0 87 0 82 1 c 0
 71 3 61 5 55 10 c 0
 48 15 46 20 46 25 c 0
 47 27 116 195 202 400 c 0
 288 605 359 772 359 772 c 2
 359 773 298 773 224 773 c 0
 132 773 86 773 81 774 c 0
 66 776 51 783 47 790 c 0
 44 794 45 799 48 803 c 0
 52 809 67 816 81 818 c 0
EndSplineSet
Validated: 33
EndChar

StartChar: bracketleft
Encoding: 91 91 58
Width: 243
VWidth: 910
Flags: HW
LayerCount: 2
Fore
SplineSet
66 848 m 0
 69 848 96 849 125 849 c 0
 177 848 179 849 186 847 c 0
 200 843 210 836 212 829 c 0
 216 820 205 811 186 806 c 0
 180 804 175 804 155 803 c 2
 131 803 l 1
 131 410 l 1
 131 16 l 1
 155 16 l 2
 175 15 180 16 186 14 c 0
 200 10 210 3 212 -4 c 0
 216 -13 205 -22 185 -27 c 0
 178 -29 176 -29 122 -29 c 0
 67 -29 65 -29 58 -27 c 0
 44 -23 35 -18 31 -12 c 0
 29 -8 29 827 31 831 c 0
 36 839 48 845 66 848 c 0
EndSplineSet
Validated: 33
EndChar

StartChar: backslash
Encoding: 92 92 59
Width: 303
VWidth: 910
Flags: HW
LayerCount: 2
Fore
SplineSet
66 818 m 0
 74 820 96 818 105 816 c 0
 119 812 129 805 130 799 c 0
 131 798 163 623 202 411 c 0
 264 74 273 23 272 20 c 0
 270 13 260 7 245 3 c 0
 234 0 209 0 199 3 c 0
 184 7 174 14 173 20 c 0
 172 21 140 197 101 410 c 0
 39 746 30 796 31 799 c 0
 34 807 47 815 66 818 c 0
EndSplineSet
Validated: 33
EndChar

StartChar: bracketright
Encoding: 93 93 60
Width: 243
VWidth: 910
Flags: HW
LayerCount: 2
Fore
SplineSet
66 848 m 0
 74 849 168 849 177 848 c 0
 192 846 207 839 211 832 c 0
 213 829 213 814 213 410 c 0
 213 6 213 -10 211 -13 c 0
 209 -18 200 -22 191 -25 c 0
 178 -30 173 -30 117 -30 c 0
 68 -29 64 -29 57 -27 c 0
 43 -23 33 -17 31 -10 c 0
 27 -1 38 9 57 14 c 0
 63 16 68 15 88 16 c 2
 112 16 l 1
 112 410 l 1
 112 803 l 1
 88 803 l 2
 68 804 63 804 57 806 c 0
 38 811 27 820 31 829 c 0
 34 838 48 845 66 848 c 0
EndSplineSet
Validated: 33
EndChar

StartChar: asciicircum
Encoding: 94 94 61
Width: 303
VWidth: 910
Flags: HW
LayerCount: 2
Fore
SplineSet
137 818 m 0
 145 819 167 818 176 816 c 0
 191 812 190 813 232 773 c 0
 253 753 270 736 271 734 c 0
 277 723 265 711 241 706 c 0
 231 704 207 705 198 707 c 0
 185 711 181 714 166 729 c 2
 152 743 l 1
 137 729 l 2
 122 714 118 711 105 707 c 0
 96 705 72 704 62 706 c 0
 38 711 26 723 32 734 c 0
 33 736 50 753 71 773 c 0
 104 804 110 809 115 812 c 0
 121 815 128 817 137 818 c 0
EndSplineSet
Validated: 33
EndChar

StartChar: underscore
Encoding: 95 95 62
Width: 546
VWidth: 910
Flags: HW
LayerCount: 2
Fore
SplineSet
36 -1 m 0
 39 -1 148 0 277 0 c 2
 512 0 l 1
 520 -3 l 2
 529 -6 537 -9 542 -14 c 0
 553 -25 544 -38 519 -44 c 2
 512 -46 l 1
 274 -46 l 1
 36 -46 l 1
 28 -44 l 2
 18 -41 11 -39 6 -34 c 0
 -2 -27 -2 -20 6 -13 c 0
 12 -8 22 -3 36 -1 c 0
EndSplineSet
Validated: 33
EndChar

StartChar: a
Encoding: 97 97 63
Width: 516
VWidth: 910
Flags: HW
LayerCount: 2
Fore
SplineSet
232 618 m 0
 267 623 309 618 346 606 c 2
 360 601 l 1
 363 603 l 2
 372 611 399 616 419 613 c 0
 435 611 450 604 454 597 c 0
 456 594 456 584 456 308 c 0
 456 31 456 20 454 17 c 0
 450 10 435 3 419 1 c 0
 399 -2 372 3 363 11 c 2
 360 14 l 1
 346 8 l 1
 270 -17 187 -7 140 31 c 0
 84 77 55 171 55 308 c 0
 55 424 76 513 118 562 c 0
 145 595 183 613 232 618 c 0
271 573 m 0
 264 574 256 574 251 573 c 0
 247 573 238 568 233 564 c 0
 199 541 175 489 164 416 c 0
 153 349 153 265 164 198 c 0
 172 141 189 97 213 68 c 0
 226 53 242 43 255 41 c 0
 282 39 324 60 349 88 c 2
 355 96 l 1
 355 308 l 1
 355 519 l 1
 349 526 l 2
 329 549 297 568 271 573 c 0
EndSplineSet
Validated: 33
EndChar

StartChar: b
Encoding: 98 98 64
Width: 516
VWidth: 910
Flags: HW
LayerCount: 2
Fore
SplineSet
97 818 m 0
 117 821 141 817 153 809 c 0
 163 802 162 812 162 712 c 0
 162 630 162 625 164 625 c 0
 165 626 171 628 178 631 c 0
 202 639 222 643 250 644 c 0
 275 645 295 641 317 636 c 0
 366 623 399 594 422 546 c 0
 437 515 447 480 453 434 c 0
 459 395 461 366 461 311 c 0
 461 265 461 253 457 221 c 0
 447 130 420 66 377 31 c 0
 329 -7 247 -17 171 8 c 2
 157 13 l 1
 152 9 l 2
 127 -6 72 -1 62 18 c 0
 60 22 60 797 62 801 c 0
 67 809 80 815 97 818 c 0
274 593 m 0
 268 597 265 596 259 597 c 0
 251 597 244 597 235 593 c 0
 208 582 182 561 167 532 c 2
 162 522 l 1
 162 309 l 1
 162 94 l 1
 173 83 l 2
 179 77 188 69 193 66 c 0
 216 50 243 40 261 41 c 0
 274 43 290 53 303 68 c 0
 325 95 341 135 350 188 c 0
 365 272 363 402 344 479 c 0
 329 538 305 578 274 593 c 0
EndSplineSet
Validated: 33
EndChar

StartChar: c
Encoding: 99 99 65
Width: 516
VWidth: 910
Flags: HW
LayerCount: 2
Fore
SplineSet
232 613 m 0
 237 614 249 614 257 614 c 0
 311 614 363 598 401 569 c 0
 422 554 443 528 453 508 c 0
 456 502 456 501 455 498 c 0
 453 490 444 484 429 480 c 0
 423 478 419 478 405 478 c 0
 387 478 380 479 369 484 c 0
 361 489 357 491 352 501 c 0
 338 526 317 547 292 559 c 0
 278 565 270 567 259 567 c 0
 250 567 249 567 244 564 c 0
 223 555 207 537 192 508 c 0
 173 471 162 425 157 360 c 0
 155 340 155 275 157 256 c 0
 162 190 173 143 192 106 c 0
 207 77 223 59 244 50 c 0
 249 47 250 47 259 47 c 0
 270 47 278 50 292 56 c 0
 317 68 338 89 352 114 c 0
 357 124 361 125 369 130 c 0
 380 135 387 137 405 137 c 0
 419 137 423 137 429 135 c 0
 444 131 453 125 455 117 c 0
 456 114 456 112 453 106 c 0
 443 86 422 61 401 46 c 0
 379 29 352 15 323 8 c 0
 260 -7 196 0 152 28 c 0
 96 64 65 137 56 254 c 0
 54 273 54 341 56 361 c 0
 68 507 113 584 199 607 c 0
 212 611 218 612 232 613 c 0
EndSplineSet
Validated: 33
EndChar

StartChar: d
Encoding: 100 100 66
Width: 516
VWidth: 910
Flags: HW
LayerCount: 2
Fore
SplineSet
391 818 m 0
 398 819 413 819 421 818 c 0
 436 816 450 809 454 802 c 0
 456 799 456 785 456 410 c 0
 456 35 456 20 454 17 c 0
 450 10 435 3 419 1 c 0
 399 -2 372 3 363 11 c 2
 360 14 l 1
 346 8 l 2
 276 -15 200 -9 152 23 c 0
 96 59 66 130 56 252 c 0
 54 271 54 350 56 373 c 0
 61 451 73 503 94 546 c 0
 114 588 142 616 181 631 c 0
 229 649 298 647 350 626 c 2
 355 624 l 1
 355 712 l 2
 355 808 354 801 361 806 c 0
 367 811 377 816 391 818 c 0
278 593 m 0
 269 596 256 598 250 596 c 0
 244 594 235 588 228 583 c 0
 214 572 202 557 192 535 c 0
 167 483 154 399 156 295 c 0
 158 209 169 146 193 100 c 0
 210 66 234 43 255 41 c 0
 282 39 324 60 349 88 c 2
 355 96 l 1
 355 309 l 1
 355 522 l 1
 350 532 l 2
 333 562 307 583 278 593 c 0
EndSplineSet
Validated: 33
EndChar

StartChar: e
Encoding: 101 101 67
Width: 500
VWidth: 910
Flags: HW
LayerCount: 2
Fore
SplineSet
232 619 m 0
 239 620 274 619 283 618 c 0
 323 612 354 598 379 574 c 0
 414 539 439 481 449 403 c 0
 453 376 455 342 455 317 c 0
 455 302 454 299 446 294 c 0
 440 289 430 287 420 285 c 0
 415 284 371 284 284 284 c 2
 156 284 l 1
 157 274 l 2
 159 226 162 196 167 167 c 0
 180 103 205 61 236 46 c 0
 241 42 244 42 249 41 c 0
 264 40 285 45 305 56 c 0
 323 65 338 77 358 98 c 0
 363 104 368 107 380 111 c 0
 386 113 390 113 405 113 c 0
 419 113 424 113 429 112 c 0
 445 107 455 99 455 91 c 0
 455 86 451 80 437 66 c 0
 418 47 399 34 374 22 c 0
 339 5 301 -3 259 -5 c 0
 224 -6 193 -1 168 10 c 0
 149 19 138 26 123 41 c 0
 88 76 67 134 59 218 c 0
 55 248 56 262 56 308 c 0
 56 353 55 366 59 397 c 0
 69 497 98 561 147 593 c 0
 169 608 197 615 232 619 c 0
259 572 m 0
 250 575 244 573 233 568 c 0
 208 554 187 519 174 472 c 0
 164 437 160 400 157 340 c 2
 156 330 l 1
 255 330 l 1
 354 330 l 1
 354 335 l 2
 353 337 353 345 352 351 c 0
 350 399 342 450 328 487 c 0
 323 500 313 521 306 532 c 0
 292 552 274 567 259 572 c 0
EndSplineSet
Validated: 33
EndChar

StartChar: f
Encoding: 102 102 68
Width: 379
VWidth: 910
Flags: HW
LayerCount: 2
Fore
SplineSet
196 824 m 0
 201 825 236 824 245 823 c 0
 289 816 326 797 346 770 c 0
 352 762 358 748 361 739 c 0
 364 728 365 717 363 713 c 0
 360 709 355 704 349 701 c 0
 339 696 329 695 314 695 c 0
 301 695 297 695 291 697 c 0
 281 700 274 702 269 707 c 0
 264 711 263 715 263 720 c 0
 263 727 261 736 256 745 c 0
 253 751 250 756 245 761 c 0
 241 765 236 769 233 771 c 0
 226 775 217 778 212 778 c 0
 208 778 199 775 192 771 c 0
 184 766 174 755 169 746 c 0
 162 731 163 746 162 593 c 2
 162 457 l 1
 231 457 l 2
 298 456 301 456 308 454 c 0
 317 451 325 448 330 443 c 0
 341 432 332 419 308 413 c 0
 301 411 298 412 231 411 c 2
 162 411 l 1
 162 225 l 1
 162 39 l 1
 165 38 l 2
 170 36 176 30 176 26 c 0
 179 16 169 8 150 3 c 0
 143 1 141 1 111 1 c 0
 81 1 79 1 73 3 c 0
 53 8 44 16 46 26 c 0
 47 30 52 35 57 38 c 2
 61 40 l 1
 61 228 l 1
 61 417 l 1
 57 419 l 2
 52 422 46 427 46 431 c 0
 44 438 49 444 57 449 c 2
 61 451 l 1
 61 591 l 1
 62 732 l 1
 64 739 l 2
 67 748 74 763 79 770 c 0
 88 783 106 797 121 805 c 0
 139 814 163 820 184 823 c 0
 189 824 194 824 196 824 c 0
EndSplineSet
Validated: 33
EndChar

StartChar: g
Encoding: 103 103 69
Width: 516
VWidth: 910
Flags: HW
LayerCount: 2
Fore
SplineSet
232 618 m 0
 267 623 309 618 346 606 c 2
 360 601 l 1
 363 603 l 2
 372 611 399 616 419 613 c 0
 435 611 450 604 454 597 c 0
 456 594 456 581 456 248 c 0
 456 -128 456 -105 451 -120 c 0
 433 -172 362 -207 269 -210 c 0
 193 -212 124 -186 78 -138 c 0
 73 -133 68 -127 66 -124 c 0
 62 -119 61 -118 61 -114 c 0
 61 -109 61 -109 65 -105 c 0
 74 -96 89 -91 111 -91 c 0
 126 -91 138 -92 147 -97 c 0
 152 -100 155 -102 160 -108 c 0
 171 -121 184 -133 193 -139 c 0
 210 -151 231 -160 248 -163 c 0
 267 -166 297 -160 316 -151 c 0
 333 -142 346 -128 352 -110 c 2
 354 -103 l 1
 355 -46 l 1
 355 12 l 1
 343 7 l 1
 268 -17 186 -7 140 31 c 0
 84 77 55 171 55 308 c 0
 55 424 76 513 118 562 c 0
 145 595 183 613 232 618 c 0
271 573 m 0
 264 574 256 574 251 573 c 0
 247 573 238 568 233 564 c 0
 199 541 175 489 164 416 c 0
 153 349 153 265 164 198 c 0
 172 141 189 97 213 68 c 0
 226 53 242 43 255 41 c 0
 282 39 324 60 349 88 c 2
 355 96 l 1
 355 308 l 1
 355 519 l 1
 349 526 l 2
 329 549 297 568 271 573 c 0
EndSplineSet
Validated: 33
EndChar

StartChar: h
Encoding: 104 104 70
Width: 516
VWidth: 910
Flags: HW
LayerCount: 2
Fore
SplineSet
97 818 m 0
 117 821 141 817 153 809 c 0
 163 802 162 813 162 700 c 2
 162 601 l 2
 163 601 165 601 169 603 c 0
 244 632 338 622 398 577 c 0
 408 570 424 552 431 542 c 0
 442 527 449 511 453 493 c 2
 455 485 l 1
 456 253 l 2
 456 29 456 20 454 17 c 0
 453 15 451 13 447 10 c 0
 422 -6 367 -2 356 18 c 0
 355 21 355 53 355 248 c 0
 355 495 355 484 350 500 c 0
 338 535 306 565 271 572 c 0
 257 576 245 573 230 565 c 0
 198 550 174 520 165 482 c 2
 162 471 l 1
 162 246 l 2
 162 29 162 20 160 17 c 0
 159 15 157 13 153 10 c 0
 128 -6 73 -2 62 18 c 0
 60 22 60 797 62 801 c 0
 67 809 80 815 97 818 c 0
EndSplineSet
Validated: 33
EndChar

StartChar: i
Encoding: 105 105 71
Width: 273
VWidth: 910
Flags: HW
LayerCount: 2
Fore
SplineSet
122 739 m 0
 147 743 176 736 185 724 c 0
 189 719 189 715 185 710 c 0
 171 692 121 688 96 703 c 0
 90 707 86 712 86 717 c 0
 86 721 90 727 96 731 c 0
 101 735 114 738 122 739 c 0
106 613 m 0
 109 613 124 614 140 614 c 0
 165 613 169 614 176 612 c 0
 200 606 209 593 197 582 c 0
 195 579 192 577 190 576 c 2
 188 575 l 1
 188 307 l 1
 188 39 l 1
 190 38 l 2
 195 36 201 30 201 26 c 0
 204 16 195 8 176 3 c 0
 169 1 167 1 137 1 c 0
 107 1 104 1 98 3 c 0
 78 8 69 16 71 26 c 0
 72 30 78 35 83 38 c 2
 86 40 l 1
 86 308 l 1
 86 574 l 1
 83 576 l 2
 81 577 78 580 76 582 c 0
 63 595 77 608 106 613 c 0
EndSplineSet
Validated: 33
EndChar

StartChar: j
Encoding: 106 106 72
Width: 364
VWidth: 910
Flags: HW
LayerCount: 2
Fore
SplineSet
238 739 m 0
 257 742 280 738 293 731 c 0
 299 727 304 721 304 717 c 0
 304 712 299 707 293 703 c 0
 273 691 233 691 213 703 c 0
 207 707 202 712 202 717 c 0
 202 721 207 727 213 731 c 0
 218 735 230 738 238 739 c 0
223 613 m 0
 226 613 241 614 257 614 c 0
 282 613 285 614 292 612 c 0
 316 606 325 593 313 582 c 0
 311 579 309 577 307 576 c 2
 304 575 l 1
 304 229 l 1
 304 -117 l 1
 301 -124 l 2
 298 -134 291 -149 286 -156 c 0
 249 -205 160 -224 85 -199 c 0
 57 -190 33 -175 18 -156 c 0
 8 -143 2 -125 0 -110 c 0
 0 -101 0 -100 5 -95 c 0
 9 -90 16 -86 27 -83 c 0
 34 -81 38 -81 50 -81 c 0
 65 -81 72 -82 83 -86 c 0
 95 -91 101 -97 101 -106 c 0
 101 -113 103 -122 108 -131 c 0
 111 -137 114 -142 119 -147 c 0
 126 -154 134 -158 143 -162 c 0
 150 -165 154 -165 161 -162 c 0
 176 -157 190 -145 196 -131 c 0
 204 -116 203 -150 203 232 c 2
 203 574 l 1
 199 576 l 2
 197 577 194 580 192 582 c 0
 179 595 194 608 223 613 c 0
EndSplineSet
Validated: 33
EndChar

StartChar: k
Encoding: 107 107 73
Width: 485
VWidth: 910
Flags: HW
LayerCount: 2
Fore
SplineSet
97 818 m 0
 104 819 119 819 127 818 c 0
 142 816 155 809 160 803 c 0
 161 801 162 797 162 606 c 2
 163 411 l 1
 250 495 l 2
 297 542 344 586 350 593 c 0
 364 606 367 608 381 612 c 0
 391 615 416 615 427 612 c 0
 447 607 458 597 454 587 c 0
 453 584 412 545 320 456 c 0
 247 386 188 328 188 328 c 1
 188 328 191 329 193 329 c 0
 195 330 204 330 212 330 c 0
 225 330 229 330 235 328 c 0
 245 326 254 322 258 318 c 0
 262 314 453 30 454 26 c 0
 458 17 446 8 427 3 c 0
 416 0 391 0 381 3 c 0
 372 6 365 9 360 13 c 0
 358 15 168 294 163 302 c 0
 162 303 162 268 162 162 c 0
 162 0 163 17 153 10 c 0
 128 -6 73 -2 62 18 c 0
 60 22 60 797 62 801 c 0
 67 809 80 815 97 818 c 0
EndSplineSet
Validated: 33
EndChar

StartChar: l
Encoding: 108 108 74
Width: 273
VWidth: 910
Flags: HW
LayerCount: 2
Fore
SplineSet
106 818 m 0
 113 819 144 819 152 818 c 0
 167 816 182 809 186 802 c 0
 188 799 188 785 188 419 c 2
 188 39 l 1
 190 38 l 2
 195 36 201 30 201 26 c 0
 204 16 195 8 176 3 c 0
 169 1 167 1 137 1 c 0
 107 1 104 1 98 3 c 0
 78 8 69 16 71 26 c 0
 72 30 78 35 83 38 c 2
 86 40 l 1
 86 410 l 1
 86 779 l 1
 83 781 l 2
 81 782 78 784 76 786 c 0
 63 799 77 813 106 818 c 0
EndSplineSet
Validated: 33
EndChar

StartChar: m
Encoding: 109 109 75
Width: 728
VWidth: 910
Flags: HW
LayerCount: 2
Fore
SplineSet
216 619 m 0
 227 620 259 619 272 618 c 0
 306 613 338 600 363 583 c 0
 364 582 366 583 372 588 c 0
 394 602 425 613 458 618 c 0
 473 620 510 620 525 618 c 0
 595 607 647 572 663 522 c 0
 668 504 668 521 668 259 c 0
 668 31 668 20 666 17 c 0
 665 15 663 13 659 10 c 0
 634 -6 579 -2 568 18 c 0
 567 21 567 54 567 258 c 0
 567 513 568 501 563 515 c 0
 554 542 529 566 503 572 c 0
 494 575 488 575 479 572 c 0
 454 566 430 543 421 518 c 0
 416 503 415 518 415 258 c 0
 415 30 415 20 413 17 c 0
 412 15 410 13 406 10 c 0
 381 -6 326 -2 315 18 c 0
 314 21 314 54 314 258 c 0
 314 513 314 501 309 515 c 0
 300 542 276 566 250 572 c 0
 237 575 231 573 217 567 c 0
 193 554 175 532 166 504 c 2
 163 495 l 1
 162 257 l 2
 162 22 161 18 160 16 c 0
 158 14 156 12 153 10 c 0
 128 -6 73 -1 62 18 c 0
 60 22 60 592 62 596 c 0
 65 600 71 605 76 608 c 0
 86 613 96 613 113 613 c 0
 130 613 137 612 148 607 c 2
 155 603 l 1
 159 606 l 2
 174 611 198 617 216 619 c 0
EndSplineSet
Validated: 33
EndChar

StartChar: n
Encoding: 110 110 76
Width: 516
VWidth: 910
Flags: HW
LayerCount: 2
Fore
SplineSet
231 618 m 0
 284 624 341 613 382 588 c 0
 396 580 403 574 415 562 c 0
 435 542 447 519 453 493 c 2
 455 485 l 1
 456 253 l 2
 456 29 456 20 454 17 c 0
 453 15 451 13 447 10 c 0
 422 -6 367 -2 356 18 c 0
 355 21 355 53 355 248 c 0
 355 495 355 484 350 500 c 0
 338 535 306 565 271 572 c 0
 257 576 245 573 230 565 c 0
 198 550 174 520 165 482 c 2
 162 471 l 1
 162 246 l 2
 162 29 162 20 160 17 c 0
 159 15 157 13 153 10 c 0
 128 -6 73 -2 62 18 c 0
 60 22 60 592 62 596 c 0
 66 602 75 608 89 612 c 0
 100 615 125 615 136 612 c 0
 144 610 152 606 157 602 c 2
 159 599 l 1
 167 603 l 2
 185 610 209 616 231 618 c 0
EndSplineSet
Validated: 33
EndChar

StartChar: o
Encoding: 111 111 77
Width: 576
VWidth: 910
Flags: HW
LayerCount: 2
Fore
SplineSet
264 619 m 0
 275 620 299 620 311 619 c 0
 377 613 429 586 466 540 c 0
 499 498 523 439 532 373 c 0
 536 349 535 338 535 308 c 0
 535 277 536 265 532 241 c 0
 521 165 492 101 451 59 c 0
 411 17 355 -5 289 -5 c 0
 214 -5 152 23 110 76 c 0
 73 122 50 187 42 266 c 0
 40 281 40 334 42 350 c 0
 51 438 79 509 125 555 c 0
 160 591 208 614 264 619 c 0
306 571 m 0
 298 574 282 574 275 573 c 0
 252 568 227 551 208 527 c 0
 176 490 155 434 146 371 c 0
 142 347 142 336 142 308 c 0
 142 279 142 267 146 243 c 0
 160 149 201 75 256 49 c 0
 270 43 275 42 289 42 c 0
 302 42 306 43 321 49 c 0
 350 64 376 91 396 131 c 0
 416 170 428 213 433 268 c 0
 434 274 434 291 434 308 c 0
 434 336 435 347 431 371 c 0
 419 454 385 521 339 554 c 0
 330 560 314 569 306 571 c 0
EndSplineSet
Validated: 33
EndChar

StartChar: p
Encoding: 112 112 78
Width: 500
VWidth: 910
Flags: HW
LayerCount: 2
Fore
SplineSet
226 619 m 0
 248 621 276 620 297 615 c 0
 352 604 390 575 416 522 c 0
 436 481 448 429 453 361 c 0
 455 341 455 273 453 253 c 0
 448 185 436 134 416 93 c 0
 399 59 378 35 350 19 c 0
 310 -5 251 -12 194 1 c 0
 185 3 169 6 164 9 c 0
 162 9 162 5 162 -87 c 0
 162 -198 163 -188 153 -195 c 0
 128 -211 73 -207 62 -187 c 0
 60 -183 60 592 62 596 c 0
 65 600 71 605 76 608 c 0
 97 617 135 616 151 605 c 2
 156 603 l 1
 163 605 l 2
 179 611 206 617 226 619 c 0
259 572 m 0
 252 574 246 574 236 572 c 0
 213 567 186 550 168 529 c 2
 162 521 l 1
 162 307 l 1
 162 94 l 1
 168 86 l 2
 193 56 235 36 259 43 c 0
 292 53 324 99 339 164 c 0
 360 247 360 368 339 451 c 0
 324 515 292 562 259 572 c 0
EndSplineSet
Validated: 33
EndChar

StartChar: q
Encoding: 113 113 79
Width: 500
VWidth: 910
Flags: HW
LayerCount: 2
Fore
SplineSet
225 619 m 0
 260 623 300 618 334 606 c 2
 346 603 l 1
 349 604 l 2
 360 611 384 616 403 613 c 0
 419 611 435 604 439 597 c 0
 441 594 441 580 441 205 c 0
 441 -170 441 -185 439 -188 c 0
 437 -193 428 -197 419 -200 c 0
 394 -208 360 -205 346 -192 c 0
 339 -187 340 -194 340 -87 c 0
 340 -34 340 9 339 9 c 2
 339 9 334 7 329 6 c 0
 281 -9 227 -9 185 5 c 0
 139 19 109 47 85 93 c 0
 65 134 52 185 47 253 c 0
 45 273 45 341 47 361 c 0
 50 404 57 441 66 471 c 0
 92 562 143 610 225 619 c 0
269 571 m 0
 264 572 259 572 254 573 c 0
 248 573 245 574 240 572 c 0
 206 560 177 515 162 451 c 0
 141 368 141 247 162 164 c 0
 177 99 208 53 241 43 c 0
 253 39 269 42 288 51 c 0
 305 59 319 71 332 86 c 2
 340 95 l 1
 340 308 l 1
 340 520 l 1
 332 528 l 2
 319 543 305 555 288 563 c 0
 282 566 273 570 269 571 c 0
EndSplineSet
Validated: 33
EndChar

StartChar: r
Encoding: 114 114 80
Width: 455
VWidth: 910
Flags: HW
LayerCount: 2
Fore
SplineSet
220 619 m 0
 231 620 265 619 277 618 c 0
 314 613 346 600 372 581 c 0
 380 575 396 560 401 553 c 0
 415 534 423 512 425 490 c 0
 425 483 425 481 424 478 c 0
 420 472 413 466 398 462 c 0
 393 460 389 461 375 461 c 0
 360 461 356 460 351 462 c 0
 340 465 334 468 329 473 c 0
 325 477 325 477 323 492 c 0
 321 511 313 530 299 545 c 0
 284 560 259 573 243 573 c 0
 231 573 213 566 199 556 c 0
 180 541 167 519 163 495 c 0
 162 491 162 411 162 264 c 2
 162 39 l 1
 165 38 l 2
 170 36 176 30 176 26 c 0
 179 16 169 8 150 3 c 0
 143 1 141 1 111 1 c 0
 81 1 79 1 73 3 c 0
 53 8 43 16 46 26 c 0
 46 30 52 35 57 38 c 2
 61 40 l 1
 61 317 l 2
 61 555 61 593 62 596 c 0
 65 600 71 605 76 608 c 0
 86 613 96 613 113 613 c 0
 130 613 137 612 148 607 c 2
 155 603 l 1
 164 607 l 2
 179 612 201 617 220 619 c 0
EndSplineSet
Validated: 33
EndChar

StartChar: s
Encoding: 115 115 81
Width: 516
VWidth: 910
Flags: HW
LayerCount: 2
Fore
SplineSet
235 619 m 0
 247 620 281 619 295 618 c 0
 337 613 373 599 401 579 c 0
 413 571 430 554 436 544 c 0
 449 526 454 509 456 488 c 0
 456 478 455 475 450 470 c 0
 440 462 426 459 406 459 c 0
 385 459 371 462 361 470 c 0
 356 474 355 477 355 487 c 0
 354 500 351 509 346 521 c 0
 331 548 303 568 269 573 c 0
 250 576 231 570 211 556 c 0
 185 539 164 510 158 478 c 0
 147 422 172 382 238 348 c 0
 253 340 267 334 299 321 c 0
 324 311 358 295 375 284 c 0
 399 269 420 249 432 232 c 0
 438 223 447 208 450 199 c 0
 461 167 457 127 439 92 c 0
 434 82 422 64 414 56 c 0
 384 23 343 3 292 -4 c 0
 277 -6 238 -6 222 -4 c 0
 167 4 125 23 96 52 c 0
 84 64 77 73 71 86 c 0
 64 103 58 131 62 138 c 0
 66 144 75 151 90 155 c 0
 100 157 123 157 134 155 c 0
 147 151 157 144 160 139 c 0
 161 137 162 132 162 127 c 0
 164 105 173 86 188 71 c 0
 203 56 224 46 245 42 c 0
 260 39 273 42 288 49 c 0
 330 70 357 119 355 167 c 0
 354 181 351 190 346 203 c 0
 336 223 321 239 296 255 c 0
 281 265 253 279 229 288 c 0
 189 303 165 315 144 328 c 0
 81 364 53 406 55 458 c 0
 57 503 77 542 113 572 c 0
 144 598 186 614 235 619 c 0
EndSplineSet
Validated: 33
EndChar

StartChar: t
Encoding: 116 116 82
Width: 364
VWidth: 910
Flags: HW
LayerCount: 2
Fore
SplineSet
168 818 m 0
 188 821 212 817 224 809 c 0
 234 802 233 812 233 706 c 2
 233 614 l 1
 266 614 l 2
 296 613 300 614 307 612 c 0
 321 608 331 601 333 594 c 0
 337 585 326 576 307 571 c 0
 300 569 296 569 266 568 c 2
 233 568 l 1
 233 304 l 1
 233 39 l 1
 236 38 l 2
 241 36 247 30 247 26 c 0
 250 16 240 8 221 3 c 0
 214 1 212 1 182 1 c 0
 152 1 150 1 144 3 c 0
 124 8 115 16 117 26 c 0
 118 30 123 35 128 38 c 2
 132 40 l 1
 132 304 l 1
 132 568 l 1
 98 568 l 2
 68 569 64 569 57 571 c 0
 43 575 33 581 31 588 c 0
 27 597 38 607 57 612 c 0
 64 614 68 613 98 614 c 2
 132 614 l 1
 132 706 l 2
 132 808 131 801 138 806 c 0
 144 811 154 816 168 818 c 0
EndSplineSet
Validated: 33
EndChar

StartChar: u
Encoding: 117 117 83
Width: 516
VWidth: 910
Flags: HW
LayerCount: 2
Fore
SplineSet
97 613 m 0
 104 614 119 614 127 613 c 0
 142 611 156 604 160 597 c 0
 162 594 162 585 162 367 c 0
 162 213 162 138 163 133 c 0
 168 92 200 55 241 44 c 0
 251 41 266 41 277 44 c 0
 317 55 349 92 354 133 c 0
 355 138 355 213 355 367 c 0
 355 562 355 593 356 596 c 0
 359 600 365 605 370 608 c 0
 387 615 415 616 434 610 c 0
 443 607 452 602 454 597 c 0
 456 594 456 584 456 308 c 0
 456 31 456 20 454 17 c 0
 452 12 443 8 434 5 c 0
 410 -3 375 0 362 12 c 2
 359 15 l 1
 352 12 l 2
 343 8 328 4 315 1 c 0
 253 -13 184 -3 135 26 c 0
 97 50 73 82 64 122 c 2
 62 130 l 1
 61 361 l 2
 61 531 61 593 62 595 c 0
 64 599 71 605 76 608 c 0
 82 610 90 612 97 613 c 0
EndSplineSet
Validated: 33
EndChar

StartChar: v
Encoding: 118 118 84
Width: 485
VWidth: 910
Flags: HW
LayerCount: 2
Fore
SplineSet
81 613 m 0
 89 614 110 614 119 612 c 0
 133 608 143 602 146 596 c 0
 146 594 169 487 195 358 c 0
 221 229 243 123 243 124 c 2
 243 124 265 230 291 359 c 0
 316 487 340 593 340 595 c 0
 341 599 348 605 354 608 c 0
 364 613 373 613 390 613 c 0
 403 613 407 614 413 612 c 0
 428 608 438 600 440 593 c 0
 440 591 426 523 381 305 c 0
 315 -14 323 15 313 9 c 0
 307 5 297 3 288 1 c 0
 278 0 208 0 198 1 c 0
 189 3 178 5 172 9 c 0
 162 15 170 -14 104 305 c 0
 67 487 46 591 46 593 c 0
 47 594 47 597 48 599 c 0
 52 604 66 611 81 613 c 0
EndSplineSet
Validated: 33
EndChar

StartChar: w
Encoding: 119 119 85
Width: 758
VWidth: 910
Flags: HW
LayerCount: 2
Fore
SplineSet
81 613 m 0
 89 614 110 614 119 612 c 0
 133 608 143 602 146 596 c 0
 146 594 167 488 192 361 c 0
 217 234 238 129 238 130 c 2
 238 130 258 235 283 362 c 0
 308 489 330 594 330 595 c 0
 332 599 338 605 344 608 c 0
 361 615 389 616 408 610 c 0
 417 607 426 602 428 597 c 0
 429 595 450 489 475 362 c 0
 500 235 521 130 521 130 c 2
 521 129 541 234 566 361 c 0
 591 488 613 594 613 596 c 0
 616 602 625 608 640 612 c 0
 651 615 675 615 686 612 c 0
 701 608 711 600 713 594 c 0
 713 591 699 521 657 306 c 0
 626 149 601 20 601 19 c 0
 599 15 592 9 586 6 c 0
 583 5 578 4 573 3 c 0
 566 1 565 1 521 1 c 0
 477 1 475 1 468 3 c 0
 451 7 442 14 440 23 c 0
 440 26 425 95 409 179 c 0
 394 263 380 331 380 331 c 2
 380 332 366 264 350 179 c 0
 334 95 319 25 319 23 c 0
 317 14 306 7 290 3 c 0
 283 1 282 1 238 1 c 0
 194 1 192 1 185 3 c 0
 180 4 174 5 171 7 c 0
 165 10 157 16 157 20 c 0
 156 21 132 150 101 307 c 0
 66 484 46 591 46 593 c 0
 47 594 47 597 48 599 c 0
 52 604 66 611 81 613 c 0
EndSplineSet
Validated: 33
EndChar

StartChar: x
Encoding: 120 120 86
Width: 485
VWidth: 910
Flags: HW
LayerCount: 2
Fore
SplineSet
90 613 m 0
 93 613 101 614 108 613 c 0
 127 613 141 609 149 602 c 0
 153 599 159 587 198 509 c 2
 242 420 l 1
 288 509 l 2
 327 588 332 599 336 602 c 0
 352 617 399 619 421 604 c 0
 426 600 430 598 431 593 c 0
 431 589 427 579 363 452 c 2
 295 316 l 1
 367 171 l 2
 435 36 440 26 440 22 c 0
 439 17 437 14 431 10 c 0
 409 -5 361 -2 345 13 c 0
 341 16 335 29 292 115 c 2
 243 213 l 1
 193 115 l 2
 150 28 144 16 140 13 c 0
 124 -2 77 -5 55 10 c 0
 49 14 47 17 46 22 c 0
 46 26 50 36 118 171 c 2
 190 316 l 1
 122 452 l 2
 58 579 55 589 55 593 c 0
 56 595 56 597 57 599 c 0
 61 604 75 611 90 613 c 0
EndSplineSet
Validated: 33
EndChar

StartChar: y
Encoding: 121 121 87
Width: 485
VWidth: 910
Flags: HW
LayerCount: 2
Fore
SplineSet
81 613 m 0
 84 613 92 614 99 613 c 0
 113 613 122 612 131 608 c 0
 136 605 143 600 145 597 c 0
 146 596 168 512 194 409 c 0
 220 306 242 221 242 221 c 2
 242 220 264 302 289 400 c 0
 314 499 337 583 338 588 c 0
 340 596 340 598 344 601 c 0
 359 617 408 619 431 604 c 0
 436 600 439 598 440 593 c 0
 440 590 413 482 340 202 c 0
 285 -11 239 -187 238 -188 c 0
 236 -191 230 -195 225 -198 c 0
 215 -203 205 -204 189 -204 c 0
 175 -204 172 -204 167 -202 c 0
 152 -198 141 -191 139 -184 c 0
 139 -181 144 -162 166 -79 c 0
 180 -23 191 23 191 24 c 0
 191 25 158 152 118 308 c 0
 65 511 46 591 46 593 c 0
 47 595 47 597 48 599 c 0
 52 604 66 611 81 613 c 0
EndSplineSet
Validated: 33
EndChar

StartChar: z
Encoding: 122 122 88
Width: 485
VWidth: 910
Flags: HW
LayerCount: 2
Fore
SplineSet
81 613 m 0
 89 614 395 614 404 613 c 0
 414 611 425 609 431 604 c 0
 438 599 440 596 440 591 c 0
 439 588 398 508 299 317 c 0
 223 169 160 47 160 46 c 2
 283 46 l 1
 406 46 l 1
 413 44 l 2
 422 41 430 38 435 33 c 0
 446 22 437 9 413 3 c 2
 406 1 l 1
 248 0 l 2
 138 0 87 0 82 1 c 0
 71 3 61 5 55 10 c 0
 48 15 46 20 46 25 c 0
 47 27 87 107 186 298 c 0
 262 446 325 567 325 568 c 2
 207 568 l 2
 127 568 86 568 81 569 c 0
 66 571 51 578 47 585 c 0
 44 589 45 594 48 598 c 0
 52 604 67 611 81 613 c 0
EndSplineSet
Validated: 33
EndChar

StartChar: braceleft
Encoding: 123 123 89
Width: 243
VWidth: 910
Flags: HW
LayerCount: 2
Fore
SplineSet
142 848 m 0
 144 849 153 849 162 848 c 0
 185 848 199 844 208 836 c 0
 215 829 215 823 208 816 c 0
 200 809 186 804 165 803 c 0
 151 802 148 801 143 796 c 0
 137 787 134 776 134 758 c 0
 134 728 140 704 168 622 c 0
 191 557 198 535 203 506 c 0
 206 490 206 465 203 454 c 0
 198 436 191 423 176 412 c 2
 173 410 l 1
 175 409 l 2
 180 405 188 396 192 391 c 0
 207 370 209 343 201 303 c 0
 196 278 189 256 169 198 c 0
 148 142 142 120 137 98 c 0
 130 62 132 38 143 24 c 0
 148 19 151 17 165 16 c 0
 186 15 200 11 208 4 c 0
 215 -3 215 -10 208 -17 c 0
 196 -27 172 -32 141 -29 c 0
 102 -25 74 -16 56 1 c 0
 33 22 26 52 36 100 c 0
 41 125 48 147 68 205 c 0
 89 261 95 283 100 305 c 0
 107 341 106 366 95 380 c 0
 90 385 87 386 73 387 c 0
 52 388 38 393 31 400 c 0
 23 407 23 414 31 421 c 0
 38 428 52 432 73 433 c 0
 87 434 90 436 95 441 c 0
 101 450 104 460 104 478 c 0
 104 508 97 532 68 615 c 0
 39 699 33 725 33 758 c 0
 33 776 34 785 39 796 c 0
 53 827 86 843 142 848 c 0
EndSplineSet
Validated: 33
EndChar

StartChar: bar
Encoding: 124 124 90
Width: 303
VWidth: 910
Flags: HW
LayerCount: 2
Fore
SplineSet
137 818 m 0
 144 819 159 819 167 818 c 0
 182 816 196 809 200 802 c 0
 202 799 202 785 202 410 c 0
 202 35 202 20 200 17 c 0
 199 15 197 13 193 10 c 0
 168 -6 113 -2 102 18 c 0
 100 22 100 797 102 801 c 0
 107 809 120 815 137 818 c 0
EndSplineSet
Validated: 33
EndChar

StartChar: braceright
Encoding: 125 125 91
Width: 243
VWidth: 910
Flags: HW
LayerCount: 2
Fore
SplineSet
56 848 m 0
 63 849 93 848 106 847 c 0
 120 844 137 841 147 836 c 0
 176 824 192 806 198 780 c 0
 201 767 201 741 198 725 c 0
 193 697 187 674 169 615 c 0
 143 535 138 512 138 482 c 0
 138 464 139 458 144 449 c 0
 148 443 150 439 155 436 c 0
 158 434 159 434 170 433 c 0
 191 432 205 428 212 421 c 0
 220 414 220 407 212 400 c 0
 205 393 191 388 170 387 c 0
 159 386 158 386 155 384 c 0
 149 380 142 371 139 360 c 0
 137 351 137 324 140 309 c 0
 144 284 151 261 169 205 c 0
 187 148 193 124 198 97 c 0
 200 85 200 81 200 66 c 0
 200 51 200 46 198 39 c 0
 191 7 168 -14 127 -24 c 0
 109 -29 96 -29 75 -29 c 0
 58 -29 53 -29 47 -27 c 0
 36 -24 30 -22 25 -17 c 0
 17 -10 17 -3 25 4 c 0
 32 11 46 15 67 16 c 0
 78 17 80 17 83 19 c 0
 89 23 95 33 98 44 c 0
 100 53 100 79 97 94 c 0
 93 119 86 142 69 198 c 0
 50 255 44 279 39 306 c 0
 37 318 37 323 37 338 c 0
 37 353 37 357 39 364 c 0
 43 382 52 397 67 408 c 2
 70 411 l 1
 68 411 l 2
 63 415 55 424 51 429 c 0
 46 437 41 447 39 456 c 0
 36 469 36 495 39 512 c 0
 44 539 50 562 68 622 c 0
 94 701 99 724 99 754 c 0
 99 772 99 778 94 787 c 0
 90 793 88 797 83 800 c 0
 80 802 78 802 67 803 c 0
 46 804 32 809 25 816 c 0
 17 823 17 829 25 836 c 0
 30 841 41 846 56 848 c 0
EndSplineSet
Validated: 33
EndChar

StartChar: asciitilde
Encoding: 126 126 92
Width: 607
VWidth: 910
Flags: HW
LayerCount: 2
Fore
SplineSet
157 421 m 0
 168 422 197 422 208 421 c 0
 249 415 281 397 310 366 c 0
 322 354 334 340 351 316 c 0
 383 271 401 251 421 241 c 0
 427 238 427 238 431 240 c 0
 445 245 459 260 467 276 c 0
 471 283 473 290 475 302 c 0
 476 308 478 313 479 315 c 0
 483 320 492 325 505 329 c 0
 514 331 539 331 549 328 c 0
 559 325 567 323 572 318 c 0
 578 312 578 307 573 289 c 0
 563 243 523 208 469 196 c 0
 419 187 367 195 330 220 c 0
 305 235 287 256 257 299 c 0
 225 343 206 363 186 373 c 0
 180 376 180 376 176 374 c 0
 162 369 148 355 140 339 c 0
 136 332 134 324 132 312 c 0
 131 306 129 301 128 299 c 0
 124 294 115 290 102 286 c 0
 93 284 68 284 58 287 c 0
 48 290 40 292 35 297 c 0
 29 303 29 308 34 327 c 0
 46 378 92 414 157 421 c 0
EndSplineSet
Validated: 33
EndChar

StartChar: degree
Encoding: 176 176 93
Width: 425
VWidth: 910
Flags: HW
LayerCount: 2
Fore
SplineSet
195 818 m 0
 202 819 235 818 245 817 c 0
 295 809 337 785 364 748 c 0
 371 737 382 717 386 703 c 0
 396 674 397 644 391 613 c 0
 385 584 370 554 350 532 c 0
 324 503 288 485 244 479 c 0
 229 477 196 477 181 479 c 0
 129 487 89 511 61 549 c 0
 54 559 43 579 39 593 c 0
 24 638 28 684 49 726 c 0
 64 758 87 781 118 797 c 0
 140 809 164 815 195 818 c 0
228 768 m 0
 218 773 211 774 205 771 c 0
 197 768 189 763 181 758 c 0
 157 740 139 709 133 674 c 0
 131 662 131 635 133 623 c 0
 141 579 166 543 198 528 c 0
 205 524 207 524 213 524 c 0
 218 524 221 524 228 528 c 0
 249 538 266 557 279 582 c 0
 285 595 289 608 292 623 c 0
 294 635 294 662 292 674 c 0
 284 717 260 753 228 768 c 0
EndSplineSet
Validated: 33
EndChar

StartChar: quotesingle
Encoding: 39 39 94
Width: 121
VWidth: 910
Flags: HW
LayerCount: 2
Fore
SplineSet
46 818 m 0
 53 819 68 819 76 818 c 0
 91 816 104 809 108 804 c 0
 112 799 112 796 106 783 c 0
 91 751 84 722 81 683 c 0
 81 672 80 670 78 667 c 0
 65 649 9 647 -12 663 c 0
 -20 668 -20 670 -20 685 c 0
 -18 721 -10 757 6 792 c 0
 9 797 13 803 15 805 c 0
 21 811 31 816 46 818 c 0
EndSplineSet
Validated: 33
EndChar

StartChar: grave
Encoding: 96 96 95
Width: 152
VWidth: 910
Flags: HW
LayerCount: 2
Fore
SplineSet
62 818 m 0
 65 818 73 819 80 819 c 0
 105 818 116 814 136 795 c 0
 163 769 182 732 187 694 c 0
 190 673 187 669 179 663 c 0
 161 648 113 648 95 663 c 0
 89 668 86 671 86 677 c 0
 86 681 86 688 86 693 c 0
 81 728 64 757 38 780 c 0
 25 790 23 795 26 801 c 0
 31 809 44 815 62 818 c 0
EndSplineSet
Validated: 33
EndChar
